<svg width="13" height="14" viewBox="0 0 13 14" fill="none" xmlns="http://www.w3.org/2000/svg">
<path id="arrow_outward" d="M10.575 4.11289L1.675 13.0129C1.49167 13.1962 1.25833 13.2879 0.975 13.2879C0.691667 13.2879 0.458333 13.1962 0.275 13.0129C0.0916667 12.8296 0 12.5962 0 12.3129C0 12.0296 0.0916667 11.7962 0.275 11.6129L9.175 2.71289H1.575C1.29167 2.71289 1.05417 2.61706 0.8625 2.42539C0.670833 2.23372 0.575 1.99622 0.575 1.71289C0.575 1.42956 0.670833 1.19206 0.8625 1.00039C1.05417 0.808724 1.29167 0.712891 1.575 0.712891H11.575C11.8583 0.712891 12.0958 0.808724 12.2875 1.00039C12.4792 1.19206 12.575 1.42956 12.575 1.71289V11.7129C12.575 11.9962 12.4792 12.2337 12.2875 12.4254C12.0958 12.6171 11.8583 12.7129 11.575 12.7129C11.2917 12.7129 11.0542 12.6171 10.8625 12.4254C10.6708 12.2337 10.575 11.9962 10.575 11.7129V4.11289Z" fill="#1C1B1F"/>
</svg>
