<svg width="16" height="16" viewBox="0 0 16 16" fill="none" xmlns="http://www.w3.org/2000/svg">
<path id="arrow_back" d="M3.87825 8.868L8.54525 13.5347C8.77308 13.7627 8.88383 14.03 8.8775 14.3365C8.87117 14.643 8.75408 14.9102 8.52625 15.138C8.29825 15.3493 8.031 15.4582 7.7245 15.4645C7.418 15.4708 7.15075 15.3601 6.92275 15.1322L0.32275 8.53225C0.210916 8.42025 0.129166 8.29592 0.0774998 8.15925C0.0258331 8.02275 0 7.87983 0 7.7305C0 7.58117 0.0258331 7.43825 0.0774998 7.30175C0.129166 7.16508 0.210916 7.04075 0.32275 6.92875L6.92875 0.323C7.14408 0.107666 7.40717 0 7.718 0C8.02883 0 8.29825 0.107666 8.52625 0.323C8.75408 0.550833 8.868 0.821166 8.868 1.134C8.868 1.44683 8.75408 1.71725 8.52625 1.94525L3.87825 6.593H14.7902C15.1094 6.593 15.3788 6.70275 15.5985 6.92225C15.818 7.14192 15.9277 7.41133 15.9277 7.7305C15.9277 8.04967 15.818 8.31908 15.5985 8.53875C15.3788 8.75825 15.1094 8.868 14.7902 8.868H3.87825Z" fill="#1C1B1F"/>
</svg>
