<svg width="57" height="142" viewBox="0 0 57 142" fill="none" xmlns="http://www.w3.org/2000/svg">
<path id="Arrow 2" d="M47.7856 1.05508V2.05508H47.8439L47.9018 2.04831L47.7856 1.05508ZM53.9572 2.55415L53.236 3.24686H53.236L53.9572 2.55415ZM55.4923 8.05077L54.4982 7.942L54.4923 7.99622V8.05077H55.4923ZM53.4428 131.974L52.7246 131.278L53.4428 131.974ZM46.7606 133.973L46.8554 132.978L46.8081 132.973H46.7606V133.973ZM0.81633 133.266C0.425808 133.656 0.425808 134.29 0.81633 134.68L7.18029 141.044C7.57082 141.435 8.20398 141.435 8.59451 141.044C8.98503 140.654 8.98503 140.02 8.59451 139.63L2.93765 133.973L8.59451 128.316C8.98503 127.926 8.98503 127.292 8.59451 126.902C8.20398 126.511 7.57082 126.511 7.18029 126.902L0.81633 133.266ZM55.4923 125.978H54.4923V125.998L54.4931 126.019L55.4923 125.978ZM3.06462 2.05508H5.85968V0.0550842H3.06462V2.05508ZM11.4498 2.05508H17.0399V0.0550842H11.4498V2.05508ZM22.63 2.05508H28.2202V0.0550842H22.63V2.05508ZM33.8103 2.05508H39.4004V0.0550842H33.8103V2.05508ZM44.9905 2.05508H47.7856V0.0550842H44.9905V2.05508ZM47.7856 1.05508C47.9018 2.04831 47.9017 2.04832 47.9016 2.04834C47.9016 2.04834 47.9015 2.04834 47.9014 2.04836C47.9013 2.04837 47.9012 2.04839 47.9011 2.04839C47.9009 2.04842 47.9008 2.04843 47.9007 2.04845C47.9005 2.04846 47.9004 2.04846 47.9005 2.04846C47.9008 2.04843 47.9017 2.04832 47.9032 2.04816C47.9062 2.04782 47.9118 2.04723 47.9198 2.0464C47.9357 2.04474 47.9614 2.04221 47.9959 2.03915C48.065 2.03304 48.1693 2.02487 48.3022 2.01758C48.5687 2.00296 48.9463 1.99207 49.3836 2.00754L49.4543 0.0087738C48.9453 -0.00921631 48.5062 0.00337219 48.1926 0.0205841C48.0355 0.0292053 47.9088 0.039032 47.8195 0.0469513C47.7749 0.0509033 47.7394 0.0543823 47.7142 0.0569916C47.7015 0.0583038 47.6914 0.0593872 47.6839 0.0602112C47.6802 0.0606384 47.6771 0.0609741 47.6746 0.0612488C47.6734 0.0613861 47.6724 0.0615082 47.6715 0.061615C47.6711 0.0616608 47.6707 0.0617065 47.6703 0.0617523C47.6701 0.0617676 47.67 0.0617828 47.6698 0.0618134C47.6697 0.0618134 47.6696 0.0618286 47.6696 0.0618286C47.6695 0.0618439 47.6694 0.0618591 47.7856 1.05508ZM52.2075 2.56044C52.6241 2.7435 52.9714 2.97137 53.236 3.24686L54.6785 1.86145C54.1912 1.3541 53.607 0.990829 53.012 0.729385L52.2075 2.56044ZM53.236 3.24686C53.5013 3.5231 53.7172 3.84549 53.8917 4.19894L55.6852 3.31389C55.435 2.80693 55.1074 2.30803 54.6785 1.86145L53.236 3.24686ZM54.4999 6.65808C54.5277 7.04385 54.5265 7.37382 54.5185 7.60464C54.5145 7.7197 54.5089 7.80913 54.5045 7.8674C54.5023 7.89651 54.5005 7.91775 54.4993 7.93044C54.4987 7.93678 54.4983 7.94097 54.4981 7.94293C54.498 7.94391 54.4979 7.94433 54.498 7.94418C54.498 7.9441 54.498 7.94389 54.498 7.94352C54.498 7.94334 54.4981 7.94312 54.4981 7.94287C54.4981 7.94274 54.4981 7.94261 54.4981 7.94247C54.4981 7.94239 54.4982 7.94228 54.4982 7.94224C54.4982 7.94212 54.4982 7.942 55.4923 8.05077C56.4863 8.15955 56.4863 8.15942 56.4863 8.15929C56.4864 8.15925 56.4864 8.15912 56.4864 8.15903C56.4864 8.15884 56.4864 8.15865 56.4864 8.15845C56.4865 8.15805 56.4865 8.15762 56.4866 8.15714C56.4867 8.15618 56.4868 8.15508 56.4869 8.15382C56.4872 8.15131 56.4875 8.14821 56.4879 8.14452C56.4886 8.13713 56.4896 8.1274 56.4907 8.11541C56.4929 8.09143 56.4958 8.05839 56.4989 8.01701C56.5051 7.9343 56.5123 7.81794 56.5173 7.67376C56.5272 7.38612 56.5285 6.98379 56.4947 6.51432L54.4999 6.65808ZM54.4923 8.05077V10.999H56.4923V8.05077H54.4923ZM54.4923 16.8953V22.7917H56.4923V16.8953H54.4923ZM54.4923 28.688V34.5844H56.4923V28.688H54.4923ZM54.4923 40.4808V46.3771H56.4923V40.4808H54.4923ZM54.4923 52.2735V58.1698H56.4923V52.2735H54.4923ZM54.4923 64.0662V69.9625H56.4923V64.0662H54.4923ZM54.4923 75.8589V81.7553H56.4923V75.8589H54.4923ZM54.4923 87.6516V93.548H56.4923V87.6516H54.4923ZM54.4923 99.4444V105.341H56.4923V99.4444H54.4923ZM54.4923 111.237V117.133H56.4923V111.237H54.4923ZM54.4923 123.03V125.978H56.4923V123.03H54.4923ZM55.4923 125.978C54.4931 126.019 54.4931 126.019 54.4931 126.019C54.4931 126.019 54.4931 126.019 54.4931 126.018C54.4931 126.018 54.4931 126.018 54.4931 126.018C54.493 126.018 54.493 126.018 54.493 126.017C54.493 126.017 54.493 126.017 54.493 126.017C54.493 126.017 54.493 126.017 54.4931 126.018C54.4931 126.021 54.4933 126.026 54.4935 126.033C54.4938 126.047 54.4942 126.071 54.4944 126.103C54.4948 126.168 54.4941 126.268 54.4896 126.396C54.4804 126.652 54.4557 127.02 54.3935 127.451L56.3729 127.737C56.4472 127.222 56.4771 126.782 56.4883 126.467C56.4939 126.309 56.4949 126.182 56.4944 126.092C56.4941 126.047 56.4935 126.011 56.4929 125.985C56.4926 125.972 56.4923 125.961 56.492 125.953C56.4919 125.949 56.4917 125.946 56.4916 125.943C56.4916 125.942 56.4916 125.94 56.4915 125.939C56.4915 125.939 56.4915 125.939 56.4915 125.938C56.4914 125.938 56.4914 125.938 56.4914 125.937C56.4914 125.937 56.4914 125.937 56.4914 125.937C56.4914 125.937 56.4914 125.937 55.4923 125.978ZM53.5246 130.185C53.3059 130.58 53.0421 130.95 52.7246 131.278L54.1609 132.67C54.6178 132.198 54.9828 131.68 55.2745 131.153L53.5246 130.185ZM52.7246 131.278C52.3843 131.629 51.9818 131.915 51.5392 132.145L52.4633 133.919C53.0638 133.606 53.6481 133.199 54.1609 132.67L52.7246 131.278ZM48.4679 132.959C47.988 133 47.576 133.004 47.2865 132.998C47.1422 132.995 47.0294 132.989 46.955 132.985C46.9178 132.982 46.8903 132.98 46.8734 132.979C46.865 132.978 46.8592 132.978 46.8561 132.978C46.8546 132.977 46.8538 132.977 46.8536 132.977C46.8536 132.977 46.8537 132.977 46.854 132.977C46.8541 132.977 46.8543 132.977 46.8546 132.977C46.8547 132.977 46.8548 132.977 46.8549 132.977C46.855 132.977 46.8551 132.977 46.8552 132.978C46.8553 132.978 46.8554 132.978 46.7606 133.973C46.6658 134.969 46.6659 134.969 46.666 134.969C46.6661 134.969 46.6662 134.969 46.6663 134.969C46.6665 134.969 46.6667 134.969 46.6669 134.969C46.6673 134.969 46.6678 134.969 46.6683 134.969C46.6693 134.969 46.6705 134.969 46.6719 134.969C46.6746 134.969 46.6781 134.97 46.6824 134.97C46.6908 134.971 46.7021 134.972 46.7162 134.973C46.7443 134.975 46.7835 134.978 46.8329 134.981C46.9316 134.987 47.0712 134.994 47.2446 134.997C47.5906 135.005 48.0749 135 48.6385 134.951L48.4679 132.959ZM46.7606 132.973H43.9333V134.973H46.7606V132.973ZM38.2786 132.973H32.624V134.973H38.2786V132.973ZM26.9693 132.973H21.3147V134.973H26.9693V132.973ZM15.66 132.973H10.0054V134.973H15.66V132.973ZM4.35076 132.973H1.52344V134.973H4.35076V132.973ZM47.7856 1.05508V2.05508H47.8439L47.9018 2.04831L47.7856 1.05508ZM53.9572 2.55415L53.236 3.24686H53.236L53.9572 2.55415ZM55.4923 8.05077L54.4982 7.942L54.4923 7.99622V8.05077H55.4923ZM53.4428 131.974L52.7246 131.278L53.4428 131.974ZM46.7606 133.973L46.8554 132.978L46.8081 132.973H46.7606V133.973ZM0.81633 133.266C0.425808 133.656 0.425808 134.29 0.81633 134.68L7.18029 141.044C7.57082 141.435 8.20398 141.435 8.59451 141.044C8.98503 140.654 8.98503 140.02 8.59451 139.63L2.93765 133.973L8.59451 128.316C8.98503 127.926 8.98503 127.292 8.59451 126.902C8.20398 126.511 7.57082 126.511 7.18029 126.902L0.81633 133.266ZM55.4923 125.978H54.4923V125.998L54.4931 126.019L55.4923 125.978ZM3.06462 2.05508H5.85968V0.0550842H3.06462V2.05508ZM11.4498 2.05508H17.0399V0.0550842H11.4498V2.05508ZM22.63 2.05508H28.2202V0.0550842H22.63V2.05508ZM33.8103 2.05508H39.4004V0.0550842H33.8103V2.05508ZM44.9905 2.05508H47.7856V0.0550842H44.9905V2.05508ZM47.7856 1.05508C47.9018 2.04831 47.9017 2.04832 47.9016 2.04834C47.9016 2.04834 47.9015 2.04834 47.9014 2.04836C47.9013 2.04837 47.9012 2.04839 47.9011 2.04839C47.9009 2.04842 47.9008 2.04843 47.9007 2.04845C47.9005 2.04846 47.9004 2.04846 47.9005 2.04846C47.9008 2.04843 47.9017 2.04832 47.9032 2.04816C47.9062 2.04782 47.9118 2.04723 47.9198 2.0464C47.9357 2.04474 47.9614 2.04221 47.9959 2.03915C48.065 2.03304 48.1693 2.02487 48.3022 2.01758C48.5687 2.00296 48.9463 1.99207 49.3836 2.00754L49.4543 0.0087738C48.9453 -0.00921631 48.5062 0.00337219 48.1926 0.0205841C48.0355 0.0292053 47.9088 0.039032 47.8195 0.0469513C47.7749 0.0509033 47.7394 0.0543823 47.7142 0.0569916C47.7015 0.0583038 47.6914 0.0593872 47.6839 0.0602112C47.6802 0.0606384 47.6771 0.0609741 47.6746 0.0612488C47.6734 0.0613861 47.6724 0.0615082 47.6715 0.061615C47.6711 0.0616608 47.6707 0.0617065 47.6703 0.0617523C47.6701 0.0617676 47.67 0.0617828 47.6698 0.0618134C47.6697 0.0618134 47.6696 0.0618286 47.6696 0.0618286C47.6695 0.0618439 47.6694 0.0618591 47.7856 1.05508ZM52.2075 2.56044C52.6241 2.7435 52.9714 2.97137 53.236 3.24686L54.6785 1.86145C54.1912 1.3541 53.607 0.990829 53.012 0.729385L52.2075 2.56044ZM53.236 3.24686C53.5013 3.5231 53.7172 3.84549 53.8917 4.19894L55.6852 3.31389C55.435 2.80693 55.1074 2.30803 54.6785 1.86145L53.236 3.24686ZM54.4999 6.65808C54.5277 7.04385 54.5265 7.37382 54.5185 7.60464C54.5145 7.7197 54.5089 7.80913 54.5045 7.8674C54.5023 7.89651 54.5005 7.91775 54.4993 7.93044C54.4987 7.93678 54.4983 7.94097 54.4981 7.94293C54.498 7.94391 54.4979 7.94433 54.498 7.94418C54.498 7.9441 54.498 7.94389 54.498 7.94352C54.498 7.94334 54.4981 7.94312 54.4981 7.94287C54.4981 7.94274 54.4981 7.94261 54.4981 7.94247C54.4981 7.94239 54.4982 7.94228 54.4982 7.94224C54.4982 7.94212 54.4982 7.942 55.4923 8.05077C56.4863 8.15955 56.4863 8.15942 56.4863 8.15929C56.4864 8.15925 56.4864 8.15912 56.4864 8.15903C56.4864 8.15884 56.4864 8.15865 56.4864 8.15845C56.4865 8.15805 56.4865 8.15762 56.4866 8.15714C56.4867 8.15618 56.4868 8.15508 56.4869 8.15382C56.4872 8.15131 56.4875 8.14821 56.4879 8.14452C56.4886 8.13713 56.4896 8.1274 56.4907 8.11541C56.4929 8.09143 56.4958 8.05839 56.4989 8.01701C56.5051 7.9343 56.5123 7.81794 56.5173 7.67376C56.5272 7.38612 56.5285 6.98379 56.4947 6.51432L54.4999 6.65808ZM54.4923 8.05077V10.999H56.4923V8.05077H54.4923ZM54.4923 16.8953V22.7917H56.4923V16.8953H54.4923ZM54.4923 28.688V34.5844H56.4923V28.688H54.4923ZM54.4923 40.4808V46.3771H56.4923V40.4808H54.4923ZM54.4923 52.2735V58.1698H56.4923V52.2735H54.4923ZM54.4923 64.0662V69.9625H56.4923V64.0662H54.4923ZM54.4923 75.8589V81.7553H56.4923V75.8589H54.4923ZM54.4923 87.6516V93.548H56.4923V87.6516H54.4923ZM54.4923 99.4444V105.341H56.4923V99.4444H54.4923ZM54.4923 111.237V117.133H56.4923V111.237H54.4923ZM54.4923 123.03V125.978H56.4923V123.03H54.4923ZM55.4923 125.978C54.4931 126.019 54.4931 126.019 54.4931 126.019C54.4931 126.019 54.4931 126.019 54.4931 126.018C54.4931 126.018 54.4931 126.018 54.4931 126.018C54.493 126.018 54.493 126.018 54.493 126.017C54.493 126.017 54.493 126.017 54.493 126.017C54.493 126.017 54.493 126.017 54.4931 126.018C54.4931 126.021 54.4933 126.026 54.4935 126.033C54.4938 126.047 54.4942 126.071 54.4944 126.103C54.4948 126.168 54.4941 126.268 54.4896 126.396C54.4804 126.652 54.4557 127.02 54.3935 127.451L56.3729 127.737C56.4472 127.222 56.4771 126.782 56.4883 126.467C56.4939 126.309 56.4949 126.182 56.4944 126.092C56.4941 126.047 56.4935 126.011 56.4929 125.985C56.4926 125.972 56.4923 125.961 56.492 125.953C56.4919 125.949 56.4917 125.946 56.4916 125.943C56.4916 125.942 56.4916 125.94 56.4915 125.939C56.4915 125.939 56.4915 125.939 56.4915 125.938C56.4914 125.938 56.4914 125.938 56.4914 125.937C56.4914 125.937 56.4914 125.937 56.4914 125.937C56.4914 125.937 56.4914 125.937 55.4923 125.978ZM53.5246 130.185C53.3059 130.58 53.0421 130.95 52.7246 131.278L54.1609 132.67C54.6178 132.198 54.9828 131.68 55.2745 131.153L53.5246 130.185ZM52.7246 131.278C52.3843 131.629 51.9818 131.915 51.5392 132.145L52.4633 133.919C53.0638 133.606 53.6481 133.199 54.1609 132.67L52.7246 131.278ZM48.4679 132.959C47.988 133 47.576 133.004 47.2865 132.998C47.1422 132.995 47.0294 132.989 46.955 132.985C46.9178 132.982 46.8903 132.98 46.8734 132.979C46.865 132.978 46.8592 132.978 46.8561 132.978C46.8546 132.977 46.8538 132.977 46.8536 132.977C46.8536 132.977 46.8537 132.977 46.854 132.977C46.8541 132.977 46.8543 132.977 46.8546 132.977C46.8547 132.977 46.8548 132.977 46.8549 132.977C46.855 132.977 46.8551 132.977 46.8552 132.978C46.8553 132.978 46.8554 132.978 46.7606 133.973C46.6658 134.969 46.6659 134.969 46.666 134.969C46.6661 134.969 46.6662 134.969 46.6663 134.969C46.6665 134.969 46.6667 134.969 46.6669 134.969C46.6673 134.969 46.6678 134.969 46.6683 134.969C46.6693 134.969 46.6705 134.969 46.6719 134.969C46.6746 134.969 46.6781 134.97 46.6824 134.97C46.6908 134.971 46.7021 134.972 46.7162 134.973C46.7443 134.975 46.7835 134.978 46.8329 134.981C46.9316 134.987 47.0712 134.994 47.2446 134.997C47.5906 135.005 48.0749 135 48.6385 134.951L48.4679 132.959ZM46.7606 132.973H43.9333V134.973H46.7606V132.973ZM38.2786 132.973H32.624V134.973H38.2786V132.973ZM26.9693 132.973H21.3147V134.973H26.9693V132.973ZM15.66 132.973H10.0054V134.973H15.66V132.973ZM4.35076 132.973H1.52344V134.973H4.35076V132.973Z" fill="white"/>
</svg>
