<svg width="55" height="143" viewBox="0 0 55 143" fill="none" xmlns="http://www.w3.org/2000/svg">
<path id="Arrow 1" d="M8.52643 2.00034V3.00034H8.46646L8.40693 2.99316L8.52643 2.00034ZM2.52341 3.50034L3.25435 4.18277H3.25435L2.52341 3.50034ZM1.03033 9.00035L2.02472 8.89458L2.03033 8.94732V9.00035H1.03033ZM3.0238 133L3.75172 132.314L3.0238 133ZM9.52344 135L9.42593 134.005L9.47457 134H9.52344V135ZM54.2317 134.293C54.6222 134.684 54.6222 135.317 54.2317 135.707L47.8677 142.071C47.4772 142.462 46.844 142.462 46.4535 142.071C46.063 141.681 46.063 141.048 46.4535 140.657L52.1104 135L46.4535 129.343C46.063 128.953 46.063 128.32 46.4535 127.929C46.844 127.539 47.4772 127.539 47.8677 127.929L54.2317 134.293ZM1.03033 127H2.03033V127.02L2.02954 127.04L1.03033 127ZM52.0255 3.00034H49.3068V1.00034H52.0255V3.00034ZM43.8694 3.00034H38.432V1.00034H43.8694V3.00034ZM32.9947 3.00034H27.5573V1.00034H32.9947V3.00034ZM22.1199 3.00034H16.6825V1.00034H22.1199V3.00034ZM11.2451 3.00034H8.52643V1.00034H11.2451V3.00034ZM8.52643 2.00034C8.40693 2.99316 8.40703 2.99318 8.40713 2.99319C8.40716 2.99319 8.40726 2.99321 8.40732 2.99321C8.40743 2.99323 8.40754 2.99324 8.40764 2.99326C8.40783 2.99329 8.40799 2.9933 8.40811 2.99332C8.40834 2.99333 8.40841 2.99335 8.40832 2.99333C8.40815 2.99332 8.40735 2.99323 8.40593 2.99306C8.40309 2.99274 8.39778 2.99214 8.39011 2.99133C8.37476 2.9897 8.34998 2.98718 8.31656 2.98413C8.24967 2.97804 8.14854 2.96991 8.01954 2.96265C7.76082 2.94807 7.3941 2.93727 6.96962 2.95288L6.89615 0.954224C7.39463 0.935898 7.82468 0.948502 8.13198 0.965805C8.28601 0.974472 8.4102 0.98439 8.49789 0.992371C8.54176 0.996368 8.57658 0.999893 8.6015 1.00253C8.61397 1.00386 8.62397 1.00497 8.63141 1.00581C8.63513 1.00624 8.6382 1.00659 8.64062 1.00687C8.64184 1.00702 8.64288 1.00714 8.64377 1.00725C8.64421 1.00729 8.64461 1.00734 8.64497 1.00739C8.64515 1.0074 8.64531 1.00743 8.64547 1.00745C8.64555 1.00746 8.64566 1.00748 8.6457 1.00748C8.64581 1.00749 8.64592 1.00751 8.52643 2.00034ZM4.23872 3.50505C3.84084 3.68578 3.50856 3.91049 3.25435 4.18277L1.79246 2.8179C2.26516 2.3116 2.83231 1.94724 3.41157 1.68411L4.23872 3.50505ZM3.25435 4.18277C2.99549 4.46004 2.7843 4.78482 2.61356 5.14214L0.809008 4.27983C1.05233 3.77063 1.37205 3.2682 1.79246 2.8179L3.25435 4.18277ZM2.0227 7.60892C1.99582 7.99503 1.99708 8.32518 2.00488 8.55618C2.00877 8.67133 2.01425 8.76087 2.01851 8.81931C2.02064 8.84849 2.02246 8.86983 2.02362 8.88263C2.0242 8.88902 2.02461 8.89327 2.02481 8.8953C2.0249 8.89631 2.02495 8.89677 2.02494 8.89665C2.02493 8.89659 2.02491 8.89639 2.02488 8.89605C2.02486 8.89587 2.02484 8.89567 2.02481 8.89542C2.0248 8.8953 2.02479 8.89517 2.02477 8.89503C2.02476 8.89496 2.02475 8.89485 2.02475 8.89481C2.02474 8.8947 2.02472 8.89458 1.03033 9.00035C0.0359412 9.10612 0.0359284 9.106 0.0359153 9.10587C0.0359105 9.10583 0.0358973 9.10571 0.0358878 9.10561C0.0358691 9.10544 0.0358494 9.10526 0.0358287 9.10506C0.0357874 9.10467 0.0357423 9.10423 0.0356935 9.10377C0.035596 9.10284 0.0354836 9.10175 0.0353572 9.10052C0.0351045 9.09805 0.0347955 9.09499 0.0344364 9.09134C0.0337182 9.08405 0.0327987 9.07442 0.0317255 9.06253C0.0295795 9.03877 0.0268158 9.00598 0.0238162 8.96488C0.0178207 8.88274 0.0108586 8.76707 0.00601667 8.62367C-0.00364387 8.33757 -0.00499868 7.93729 0.0275223 7.47005L2.0227 7.60892ZM2.03033 9.00035V11.9503H0.030332V9.00035H2.03033ZM2.03033 17.8503V23.7504H0.030332V17.8503H2.03033ZM2.03033 29.6504V35.5503H0.030332V29.6504H2.03033ZM2.03033 41.4503V47.3503H0.030332V41.4503H2.03033ZM2.03033 53.2504V59.1504H0.030332V53.2504H2.03033ZM2.03033 65.0504V70.9504H0.030332V65.0504H2.03033ZM2.03033 76.8504V82.7504H0.030332V76.8504H2.03033ZM2.03033 88.6504V94.5504H0.030332V88.6504H2.03033ZM2.03033 100.45V106.35H0.030332V100.45H2.03033ZM2.03033 112.25V118.15H0.030332V112.25H2.03033ZM2.03033 124.05V127H0.030332V124.05H2.03033ZM1.03033 127C2.02954 127.04 2.02954 127.04 2.02955 127.04C2.02955 127.04 2.02955 127.04 2.02956 127.04C2.02956 127.04 2.02957 127.039 2.02957 127.039C2.02958 127.039 2.02959 127.039 2.0296 127.039C2.02961 127.038 2.02961 127.038 2.02962 127.038C2.02962 127.038 2.0296 127.039 2.02956 127.04C2.02948 127.042 2.02934 127.047 2.02917 127.054C2.02883 127.069 2.0284 127.093 2.02821 127.125C2.02784 127.19 2.02848 127.29 2.0329 127.418C2.04175 127.674 2.06564 128.042 2.12593 128.473L0.145219 128.75C0.0736108 128.238 0.0448837 127.8 0.0340854 127.487C0.0286755 127.33 0.0277364 127.203 0.0282439 127.114C0.0284978 127.069 0.0291142 127.033 0.0297188 127.007C0.0300212 126.995 0.0303208 126.984 0.0305709 126.976C0.030696 126.972 0.0308089 126.969 0.0309035 126.966C0.0309508 126.965 0.0309936 126.964 0.0310312 126.963C0.03105 126.962 0.0310674 126.962 0.0310835 126.962C0.0310915 126.961 0.0310991 126.961 0.0311065 126.961C0.0311102 126.961 0.0311154 126.961 0.0311172 126.961C0.0311223 126.961 0.0311273 126.96 1.03033 127ZM2.96995 131.213C3.18387 131.612 3.44175 131.985 3.75172 132.314L2.29587 133.686C1.84813 133.21 1.49159 132.688 1.20743 132.158L2.96995 131.213ZM3.75172 132.314C4.07946 132.662 4.46586 132.945 4.88992 133.173L3.94203 134.934C3.3588 134.62 2.79256 134.213 2.29587 133.686L3.75172 132.314ZM7.86183 133.986C8.32776 134.027 8.72791 134.031 9.00893 134.025C9.14907 134.022 9.25851 134.017 9.33049 134.012C9.36645 134.01 9.39296 134.008 9.40917 134.007C9.41728 134.006 9.4228 134.005 9.42563 134.005C9.42704 134.005 9.42778 134.005 9.42784 134.005C9.42787 134.005 9.42772 134.005 9.4274 134.005C9.42724 134.005 9.42704 134.005 9.4268 134.005C9.42667 134.005 9.42654 134.005 9.42639 134.005C9.42632 134.005 9.42621 134.005 9.42617 134.005C9.42605 134.005 9.42593 134.005 9.52344 135C9.62095 135.996 9.62082 135.996 9.62069 135.996C9.62064 135.996 9.62051 135.996 9.62041 135.996C9.62022 135.996 9.62002 135.996 9.61981 135.996C9.61939 135.996 9.61892 135.996 9.6184 135.996C9.61737 135.996 9.61617 135.996 9.61478 135.996C9.612 135.996 9.60851 135.997 9.60432 135.997C9.59593 135.998 9.58474 135.999 9.57085 136C9.54307 136.002 9.50447 136.005 9.45593 136.008C9.3589 136.014 9.2218 136.021 9.05174 136.025C8.71238 136.032 8.23759 136.027 7.68527 135.978L7.86183 133.986ZM9.52344 134H12.2735V136H9.52344V134ZM17.7736 134H23.2738V136H17.7736V134ZM28.7739 134H34.2741V136H28.7739V134ZM39.7742 134H45.2744V136H39.7742V134ZM50.7745 134H53.5246V136H50.7745V134ZM8.52643 2.00034V3.00034H8.46646L8.40693 2.99316L8.52643 2.00034ZM2.52341 3.50034L3.25435 4.18277H3.25435L2.52341 3.50034ZM1.03033 9.00035L2.02472 8.89458L2.03033 8.94732V9.00035H1.03033ZM3.0238 133L3.75172 132.314L3.0238 133ZM9.52344 135L9.42593 134.005L9.47457 134H9.52344V135ZM54.2317 134.293C54.6222 134.684 54.6222 135.317 54.2317 135.707L47.8677 142.071C47.4772 142.462 46.844 142.462 46.4535 142.071C46.063 141.681 46.063 141.048 46.4535 140.657L52.1104 135L46.4535 129.343C46.063 128.953 46.063 128.32 46.4535 127.929C46.844 127.539 47.4772 127.539 47.8677 127.929L54.2317 134.293ZM1.03033 127H2.03033V127.02L2.02954 127.04L1.03033 127ZM52.0255 3.00034H49.3068V1.00034H52.0255V3.00034ZM43.8694 3.00034H38.432V1.00034H43.8694V3.00034ZM32.9947 3.00034H27.5573V1.00034H32.9947V3.00034ZM22.1199 3.00034H16.6825V1.00034H22.1199V3.00034ZM11.2451 3.00034H8.52643V1.00034H11.2451V3.00034ZM8.52643 2.00034C8.40693 2.99316 8.40703 2.99318 8.40713 2.99319C8.40716 2.99319 8.40726 2.99321 8.40732 2.99321C8.40743 2.99323 8.40754 2.99324 8.40764 2.99326C8.40783 2.99329 8.40799 2.9933 8.40811 2.99332C8.40834 2.99333 8.40841 2.99335 8.40832 2.99333C8.40815 2.99332 8.40735 2.99323 8.40593 2.99306C8.40309 2.99274 8.39778 2.99214 8.39011 2.99133C8.37476 2.9897 8.34998 2.98718 8.31656 2.98413C8.24967 2.97804 8.14854 2.96991 8.01954 2.96265C7.76082 2.94807 7.3941 2.93727 6.96962 2.95288L6.89615 0.954224C7.39463 0.935898 7.82468 0.948502 8.13198 0.965805C8.28601 0.974472 8.4102 0.98439 8.49789 0.992371C8.54176 0.996368 8.57658 0.999893 8.6015 1.00253C8.61397 1.00386 8.62397 1.00497 8.63141 1.00581C8.63513 1.00624 8.6382 1.00659 8.64062 1.00687C8.64184 1.00702 8.64288 1.00714 8.64377 1.00725C8.64421 1.00729 8.64461 1.00734 8.64497 1.00739C8.64515 1.0074 8.64531 1.00743 8.64547 1.00745C8.64555 1.00746 8.64566 1.00748 8.6457 1.00748C8.64581 1.00749 8.64592 1.00751 8.52643 2.00034ZM4.23872 3.50505C3.84084 3.68578 3.50856 3.91049 3.25435 4.18277L1.79246 2.8179C2.26516 2.3116 2.83231 1.94724 3.41157 1.68411L4.23872 3.50505ZM3.25435 4.18277C2.99549 4.46004 2.7843 4.78482 2.61356 5.14214L0.809008 4.27983C1.05233 3.77063 1.37205 3.2682 1.79246 2.8179L3.25435 4.18277ZM2.0227 7.60892C1.99582 7.99503 1.99708 8.32518 2.00488 8.55618C2.00877 8.67133 2.01425 8.76087 2.01851 8.81931C2.02064 8.84849 2.02246 8.86983 2.02362 8.88263C2.0242 8.88902 2.02461 8.89327 2.02481 8.8953C2.0249 8.89631 2.02495 8.89677 2.02494 8.89665C2.02493 8.89659 2.02491 8.89639 2.02488 8.89605C2.02486 8.89587 2.02484 8.89567 2.02481 8.89542C2.0248 8.8953 2.02479 8.89517 2.02477 8.89503C2.02476 8.89496 2.02475 8.89485 2.02475 8.89481C2.02474 8.8947 2.02472 8.89458 1.03033 9.00035C0.0359412 9.10612 0.0359284 9.106 0.0359153 9.10587C0.0359105 9.10583 0.0358973 9.10571 0.0358878 9.10561C0.0358691 9.10544 0.0358494 9.10526 0.0358287 9.10506C0.0357874 9.10467 0.0357423 9.10423 0.0356935 9.10377C0.035596 9.10284 0.0354836 9.10175 0.0353572 9.10052C0.0351045 9.09805 0.0347955 9.09499 0.0344364 9.09134C0.0337182 9.08405 0.0327987 9.07442 0.0317255 9.06253C0.0295795 9.03877 0.0268158 9.00598 0.0238162 8.96488C0.0178207 8.88274 0.0108586 8.76707 0.00601667 8.62367C-0.00364387 8.33757 -0.00499868 7.93729 0.0275223 7.47005L2.0227 7.60892ZM2.03033 9.00035V11.9503H0.030332V9.00035H2.03033ZM2.03033 17.8503V23.7504H0.030332V17.8503H2.03033ZM2.03033 29.6504V35.5503H0.030332V29.6504H2.03033ZM2.03033 41.4503V47.3503H0.030332V41.4503H2.03033ZM2.03033 53.2504V59.1504H0.030332V53.2504H2.03033ZM2.03033 65.0504V70.9504H0.030332V65.0504H2.03033ZM2.03033 76.8504V82.7504H0.030332V76.8504H2.03033ZM2.03033 88.6504V94.5504H0.030332V88.6504H2.03033ZM2.03033 100.45V106.35H0.030332V100.45H2.03033ZM2.03033 112.25V118.15H0.030332V112.25H2.03033ZM2.03033 124.05V127H0.030332V124.05H2.03033ZM1.03033 127C2.02954 127.04 2.02954 127.04 2.02955 127.04C2.02955 127.04 2.02955 127.04 2.02956 127.04C2.02956 127.04 2.02957 127.039 2.02957 127.039C2.02958 127.039 2.02959 127.039 2.0296 127.039C2.02961 127.038 2.02961 127.038 2.02962 127.038C2.02962 127.038 2.0296 127.039 2.02956 127.04C2.02948 127.042 2.02934 127.047 2.02917 127.054C2.02883 127.069 2.0284 127.093 2.02821 127.125C2.02784 127.19 2.02848 127.29 2.0329 127.418C2.04175 127.674 2.06564 128.042 2.12593 128.473L0.145219 128.75C0.0736108 128.238 0.0448837 127.8 0.0340854 127.487C0.0286755 127.33 0.0277364 127.203 0.0282439 127.114C0.0284978 127.069 0.0291142 127.033 0.0297188 127.007C0.0300212 126.995 0.0303208 126.984 0.0305709 126.976C0.030696 126.972 0.0308089 126.969 0.0309035 126.966C0.0309508 126.965 0.0309936 126.964 0.0310312 126.963C0.03105 126.962 0.0310674 126.962 0.0310835 126.962C0.0310915 126.961 0.0310991 126.961 0.0311065 126.961C0.0311102 126.961 0.0311154 126.961 0.0311172 126.961C0.0311223 126.961 0.0311273 126.96 1.03033 127ZM2.96995 131.213C3.18387 131.612 3.44175 131.985 3.75172 132.314L2.29587 133.686C1.84813 133.21 1.49159 132.688 1.20743 132.158L2.96995 131.213ZM3.75172 132.314C4.07946 132.662 4.46586 132.945 4.88992 133.173L3.94203 134.934C3.3588 134.62 2.79256 134.213 2.29587 133.686L3.75172 132.314ZM7.86183 133.986C8.32776 134.027 8.72791 134.031 9.00893 134.025C9.14907 134.022 9.25851 134.017 9.33049 134.012C9.36645 134.01 9.39296 134.008 9.40917 134.007C9.41728 134.006 9.4228 134.005 9.42563 134.005C9.42704 134.005 9.42778 134.005 9.42784 134.005C9.42787 134.005 9.42772 134.005 9.4274 134.005C9.42724 134.005 9.42704 134.005 9.4268 134.005C9.42667 134.005 9.42654 134.005 9.42639 134.005C9.42632 134.005 9.42621 134.005 9.42617 134.005C9.42605 134.005 9.42593 134.005 9.52344 135C9.62095 135.996 9.62082 135.996 9.62069 135.996C9.62064 135.996 9.62051 135.996 9.62041 135.996C9.62022 135.996 9.62002 135.996 9.61981 135.996C9.61939 135.996 9.61892 135.996 9.6184 135.996C9.61737 135.996 9.61617 135.996 9.61478 135.996C9.612 135.996 9.60851 135.997 9.60432 135.997C9.59593 135.998 9.58474 135.999 9.57085 136C9.54307 136.002 9.50447 136.005 9.45593 136.008C9.3589 136.014 9.2218 136.021 9.05174 136.025C8.71238 136.032 8.23759 136.027 7.68527 135.978L7.86183 133.986ZM9.52344 134H12.2735V136H9.52344V134ZM17.7736 134H23.2738V136H17.7736V134ZM28.7739 134H34.2741V136H28.7739V134ZM39.7742 134H45.2744V136H39.7742V134ZM50.7745 134H53.5246V136H50.7745V134Z" fill="white"/>
</svg>
