<svg width="30" height="36" viewBox="0 0 30 36" fill="none" xmlns="http://www.w3.org/2000/svg">
<g id="Group">
<path id="Vector" fill-rule="evenodd" clip-rule="evenodd" d="M9.16264 24.5909C10.9409 25.6048 12.14 27.518 12.14 29.7116C12.14 32.9645 9.50261 35.6019 6.24974 35.6019C2.99686 35.6019 0.359463 32.9645 0.359463 29.7116C0.359463 27.5613 1.51179 25.6805 3.23247 24.6519C3.06451 21.1339 3.25386 13.928 3.28827 11.0741C1.52422 10.0565 0.336914 8.15105 0.336914 5.9684C0.336914 2.71523 2.97431 0.078125 6.22719 0.078125C9.48035 0.078125 12.1178 2.71523 12.1178 5.9684C12.1178 8.15337 10.9278 10.0605 9.16091 11.0773V17.9958C11.4254 17.337 13.6794 17.3954 15.7959 17.4503C16.6747 17.4732 17.5223 17.4954 18.3402 17.4312C20.0716 17.2951 21.3459 16.2552 21.4176 11.2403C19.4844 10.2742 18.1566 8.27652 18.1566 5.9684C18.1566 2.71523 20.7937 0.078125 24.0472 0.078125C27.3001 0.078125 29.9372 2.71523 29.9372 5.9684C29.9372 8.02992 28.8779 9.84398 27.274 10.8963C27.2327 20.8509 23.6754 22.8922 18.7987 23.2755C17.8323 23.3516 16.7652 23.3238 15.6586 23.2949C13.4675 23.2377 11.064 23.1749 9.16091 24.3946C9.16091 24.4591 9.16177 24.5247 9.16264 24.5909ZM24.0472 3.74614C25.2741 3.74614 26.2692 4.74091 26.2692 5.96811C26.2692 7.19531 25.2744 8.19037 24.0472 8.19037C22.8197 8.19037 21.8246 7.19531 21.8246 5.96811C21.8246 4.7412 22.8197 3.74614 24.0472 3.74614ZM6.22719 3.74614C7.45439 3.74614 8.44945 4.74091 8.44945 5.96811C8.44945 7.19531 7.45468 8.19037 6.22719 8.19037C4.9997 8.19037 4.00522 7.19531 4.00522 5.96811C4.00522 4.7412 4.99999 3.74614 6.22719 3.74614ZM6.24945 27.4891C7.47665 27.4891 8.47171 28.4841 8.47171 29.7116C8.47171 30.9391 7.47694 31.9336 6.24945 31.9336C5.02196 31.9336 4.02719 30.9391 4.02719 29.7116C4.02719 28.4841 5.02225 27.4891 6.24945 27.4891Z" fill="#9B51E0"/>
</g>
</svg>
