<svg width="36" height="37" viewBox="0 0 36 37" fill="none" xmlns="http://www.w3.org/2000/svg">
<g id="Group">
<path id="Vector" fill-rule="evenodd" clip-rule="evenodd" d="M9.14364 0.851562H27.1272C28.1278 0.851562 28.9445 1.66391 28.9445 2.65261V4.52305H7.32632V2.65261C7.32632 1.66102 8.14309 0.851562 9.14364 0.851562ZM3.65084 11.947H32.6229C34.4257 11.947 35.8988 13.4069 35.8988 15.1935V33.1288C35.8988 34.9154 34.4257 36.3753 32.6229 36.3753H3.65084C1.84811 36.3753 0.375 34.9154 0.375 33.1288V15.1935C0.375 13.4069 1.84811 11.947 3.65084 11.947ZM16.1591 17.7288L24.1197 23.2303C24.251 23.3141 24.3706 23.424 24.464 23.5569C24.8373 24.0918 24.7002 24.8261 24.1606 25.1961L16.235 30.6282C16.0308 30.7958 15.7682 30.8941 15.4795 30.8941C14.8202 30.8941 14.2864 30.3651 14.2864 29.7117V18.6944H14.2922C14.2922 18.4602 14.3622 18.2261 14.5052 18.0208C14.8815 17.486 15.6224 17.3559 16.1591 17.7288ZM5.66652 6.28941H30.6043C31.6049 6.28941 32.4217 7.10176 32.4217 8.09046V10.0332H3.8492V8.09046C3.8492 7.09887 4.66597 6.28941 5.66652 6.28941Z" fill="#9B51E0"/>
</g>
</svg>
