<svg width="32" height="32" viewBox="0 0 32 32" fill="none" xmlns="http://www.w3.org/2000/svg">
<g id="lock">
<mask id="mask0_302_2637" style="mask-type:alpha" maskUnits="userSpaceOnUse" x="0" y="0" width="32" height="32">
<rect id="Bounding box" width="32" height="32" fill="#D9D9D9"/>
</mask>
<g mask="url(#mask0_302_2637)">
<path id="lock_2" d="M8.41033 28.666C7.74544 28.666 7.17744 28.4306 6.70633 27.9597C6.23544 27.4886 6 26.9206 6 26.2557V13.743C6 13.0781 6.23544 12.5101 6.70633 12.039C7.17744 11.5681 7.74544 11.3327 8.41033 11.3327H10V8.66602C10 7.00113 10.5838 5.5849 11.7513 4.41735C12.9189 3.24979 14.3351 2.66602 16 2.66602C17.6649 2.66602 19.0811 3.24979 20.2487 4.41735C21.4162 5.5849 22 7.00113 22 8.66602V11.3327H23.5897C24.2546 11.3327 24.8226 11.5681 25.2937 12.039C25.7646 12.5101 26 13.0781 26 13.743V26.2557C26 26.9206 25.7646 27.4886 25.2937 27.9597C24.8226 28.4306 24.2546 28.666 23.5897 28.666H8.41033ZM8.41033 26.666H23.5897C23.7094 26.666 23.8078 26.6276 23.8847 26.5507C23.9616 26.4738 24 26.3755 24 26.2557V13.743C24 13.6232 23.9616 13.5249 23.8847 13.448C23.8078 13.3711 23.7094 13.3327 23.5897 13.3327H8.41033C8.29056 13.3327 8.19222 13.3711 8.11533 13.448C8.03844 13.5249 8 13.6232 8 13.743V26.2557C8 26.3755 8.03844 26.4738 8.11533 26.5507C8.19222 26.6276 8.29056 26.666 8.41033 26.666ZM16 22.3327C16.6478 22.3327 17.1987 22.1058 17.6527 21.652C18.1064 21.198 18.3333 20.6471 18.3333 19.9993C18.3333 19.3516 18.1064 18.8007 17.6527 18.3467C17.1987 17.8929 16.6478 17.666 16 17.666C15.3522 17.666 14.8013 17.8929 14.3473 18.3467C13.8936 18.8007 13.6667 19.3516 13.6667 19.9993C13.6667 20.6471 13.8936 21.198 14.3473 21.652C14.8013 22.1058 15.3522 22.3327 16 22.3327ZM12 11.3327H20V8.66602C20 7.5549 19.6111 6.61046 18.8333 5.83268C18.0556 5.0549 17.1111 4.66602 16 4.66602C14.8889 4.66602 13.9444 5.0549 13.1667 5.83268C12.3889 6.61046 12 7.5549 12 8.66602V11.3327Z" fill="#1C1B1F"/>
</g>
</g>
</svg>
