<svg width="32" height="32" viewBox="0 0 32 32" fill="none" xmlns="http://www.w3.org/2000/svg">
<g id="mail">
<mask id="mask0_302_2630" style="mask-type:alpha" maskUnits="userSpaceOnUse" x="0" y="0" width="32" height="32">
<rect id="Bounding box" width="32" height="32" fill="#D9D9D9"/>
</mask>
<g mask="url(#mask0_302_2630)">
<path id="mail_2" d="M5.74334 26C5.06979 26 4.49967 25.7667 4.03301 25.3C3.56634 24.8333 3.33301 24.2632 3.33301 23.5897V8.41033C3.33301 7.73678 3.56634 7.16667 4.03301 6.7C4.49967 6.23333 5.06979 6 5.74334 6H26.256C26.9296 6 27.4997 6.23333 27.9663 6.7C28.433 7.16667 28.6663 7.73678 28.6663 8.41033V23.5897C28.6663 24.2632 28.433 24.8333 27.9663 25.3C27.4997 25.7667 26.9296 26 26.256 26H5.74334ZM26.6663 9.923L16.6483 16.336C16.5459 16.394 16.4399 16.4397 16.3303 16.473C16.221 16.5063 16.1108 16.523 15.9997 16.523C15.8886 16.523 15.7783 16.5063 15.669 16.473C15.5595 16.4397 15.4535 16.394 15.351 16.336L5.33301 9.923V23.5897C5.33301 23.7094 5.37145 23.8078 5.44834 23.8847C5.52523 23.9616 5.62356 24 5.74334 24H26.256C26.3758 24 26.4741 23.9616 26.551 23.8847C26.6279 23.8078 26.6663 23.7094 26.6663 23.5897V9.923ZM15.9997 14.6667L26.4613 8H5.53801L15.9997 14.6667ZM5.33301 10.2307V8.70633V8.746V8.70367V10.2307Z" fill="#1C1B1F"/>
</g>
</g>
</svg>
