<svg width="41" height="41" viewBox="0 0 41 41" fill="none" xmlns="http://www.w3.org/2000/svg">
<path d="M6.25625 8L19.3333 16.3333L32.4104 8H6.25625ZM6.51292 30.5C5.68431 30.5 4.975 30.205 4.385 29.615C3.795 29.025 3.5 28.3157 3.5 27.4871V8.51292C3.5 7.68431 3.795 6.975 4.385 6.385C4.975 5.795 5.68431 5.5 6.51292 5.5H32.1538C32.9824 5.5 33.6917 5.795 34.2817 6.385C34.8717 6.975 35.1667 7.68431 35.1667 8.51292V17.3271C35.1667 17.6813 35.0468 17.9781 34.8071 18.2175C34.5674 18.4572 34.2704 18.5771 33.9163 18.5771C33.5618 18.5771 33.265 18.4572 33.0258 18.2175C32.7864 17.9781 32.6667 17.6813 32.6667 17.3271V10.4038L20.1442 18.42C20.0503 18.4861 19.78 18.564 19.3333 18.6538C19.1944 18.6538 19.0567 18.6356 18.92 18.5992C18.7831 18.5631 18.6506 18.5033 18.5225 18.42L6 10.4038V27.4871C6 27.6368 6.04806 27.7597 6.14417 27.8558C6.24028 27.9519 6.36319 28 6.51292 28H15.375C15.7292 28 16.026 28.1199 16.2654 28.3596C16.5051 28.5993 16.625 28.8963 16.625 29.2504C16.625 29.6049 16.5051 29.9017 16.2654 30.1408C16.026 30.3803 15.7292 30.5 15.375 30.5H6.51292ZM25.5321 30.545L34.1025 21.9746C34.3333 21.7438 34.6235 21.6257 34.9729 21.6204C35.3221 21.6149 35.6174 21.7329 35.8587 21.9746C36.1004 22.216 36.2212 22.5086 36.2212 22.8525C36.2212 23.1967 36.1004 23.4894 35.8587 23.7308L26.5867 33.0033C26.2853 33.3045 25.9338 33.455 25.5321 33.455C25.1304 33.455 24.7789 33.3045 24.4775 33.0033L19.9037 28.4296C19.6729 28.1988 19.5549 27.9086 19.5496 27.5592C19.5443 27.21 19.6624 26.9146 19.9037 26.6729C20.1451 26.4315 20.4379 26.3108 20.7821 26.3108C21.126 26.3108 21.4186 26.4315 21.66 26.6729L25.5321 30.545Z" fill="#1C1B1F"/>
</svg>
