<svg width="34" height="29" viewBox="0 0 34 29" fill="none" xmlns="http://www.w3.org/2000/svg">
<path id="mark_email_read" d="M3.25625 3L16.3333 11.3333L29.4104 3H3.25625ZM3.51292 25.5C2.68431 25.5 1.975 25.205 1.385 24.615C0.795 24.025 0.5 23.3157 0.5 22.4871V3.51292C0.5 2.68431 0.795 1.975 1.385 1.385C1.975 0.795 2.68431 0.5 3.51292 0.5H29.1538C29.9824 0.5 30.6917 0.795 31.2817 1.385C31.8717 1.975 32.1667 2.68431 32.1667 3.51292V12.3271C32.1667 12.6813 32.0468 12.9781 31.8071 13.2175C31.5674 13.4572 31.2704 13.5771 30.9163 13.5771C30.5618 13.5771 30.265 13.4572 30.0258 13.2175C29.7864 12.9781 29.6667 12.6813 29.6667 12.3271V5.40375L17.1442 13.42C17.0503 13.4861 16.78 13.564 16.3333 13.6538C16.1944 13.6538 16.0567 13.6356 15.92 13.5992C15.7831 13.5631 15.6506 13.5033 15.5225 13.42L3 5.40375V22.4871C3 22.6368 3.04806 22.7597 3.14417 22.8558C3.24028 22.9519 3.36319 23 3.51292 23H12.375C12.7292 23 13.026 23.1199 13.2654 23.3596C13.5051 23.5993 13.625 23.8963 13.625 24.2504C13.625 24.6049 13.5051 24.9017 13.2654 25.1408C13.026 25.3803 12.7292 25.5 12.375 25.5H3.51292ZM22.5321 25.545L31.1025 16.9746C31.3333 16.7438 31.6235 16.6257 31.9729 16.6204C32.3221 16.6149 32.6174 16.7329 32.8587 16.9746C33.1004 17.216 33.2212 17.5086 33.2212 17.8525C33.2212 18.1967 33.1004 18.4894 32.8587 18.7308L23.5867 28.0033C23.2853 28.3045 22.9338 28.455 22.5321 28.455C22.1304 28.455 21.7789 28.3045 21.4775 28.0033L16.9037 23.4296C16.6729 23.1988 16.5549 22.9086 16.5496 22.5592C16.5443 22.21 16.6624 21.9146 16.9037 21.6729C17.1451 21.4315 17.4379 21.3108 17.7821 21.3108C18.126 21.3108 18.4186 21.4315 18.66 21.6729L22.5321 25.545Z" fill="#1C1B1F"/>
</svg>
