<svg width="80" height="80" viewBox="0 0 80 80" fill="none" xmlns="http://www.w3.org/2000/svg">
<g id="Microsoft-Fluentui-Emoji-3d-Waving-Hand-3d-Default 1">
<path id="Vector" d="M29.1237 17.694C26.0822 24.4007 22.3497 32.631 19.5477 35.9002C19.0007 34.63 19.0592 32.5002 18.4339 27.3027C17.8692 22.6093 13.9984 22.1639 12.3377 22.496C8.66419 23.262 7.54519 26.9852 7.66769 28.358C7.86319 30.5462 7.87244 30.4717 8.27344 35.7632C8.85969 43.501 5.86994 49.3432 5.59644 55.9672C5.59644 68.453 16.5387 74.5882 24.1982 74.5882C30.3257 74.5882 36.4559 70.6675 38.7549 68.707L50.2442 58.2142C51.6509 57.12 55.1282 53.5097 56.6534 51.434C60.8114 45.7755 54.7969 41.8792 51.4167 42.8562C51.6824 42.653 53.2859 40.049 54.0544 38.7725C56.1178 34.63 54.0544 31.8707 52.5304 31.113C49.0719 29.3935 46.5317 31.328 45.7307 32.383C46.0367 31.862 46.9967 29.757 48.5442 25.896C50.0917 22.0349 47.5999 19.6498 46.1604 18.9398C43.0342 17.4939 40.0642 19.3306 39.3217 20.972C38.9579 21.7757 36.9967 26.0712 36.1427 27.9657C36.7864 26.3947 37.9519 23.274 38.3642 21.8317C39.1849 18.4318 37.2114 16.1002 35.9609 15.5009C34.2222 14.6678 30.5949 14.4496 29.1612 17.6112L29.1237 17.694Z" fill="url(#paint0_radial_302_1399)"/>
<path id="Vector_2" d="M29.1236 17.694C26.0821 24.4007 22.3498 32.631 19.5476 35.9002C19.0006 34.63 19.0593 32.5002 18.4341 27.3027C17.8693 22.6093 13.9986 22.1639 12.3376 22.496C8.66431 23.262 7.54506 26.9852 7.66781 28.358C7.86306 30.5462 7.87256 30.4717 8.27331 35.7632C8.85956 43.501 5.87006 49.3432 5.59656 55.9672C5.59656 68.453 16.5386 74.5882 24.1981 74.5882C30.3256 74.5882 36.4558 70.6675 38.7551 68.707L50.2443 58.2142C51.6511 57.12 55.1282 53.5097 56.6534 51.434C60.8114 45.7755 54.7968 41.8792 51.4168 42.8562C51.6826 42.653 53.2861 40.049 54.0546 38.7725C56.1178 34.63 54.0546 31.8707 52.5303 31.113C49.0718 29.3935 46.5318 31.328 45.7306 32.383C46.0368 31.862 46.9968 29.757 48.5443 25.896C50.0918 22.0349 47.5998 19.6498 46.1606 18.9398C43.0341 17.4939 40.0641 19.3306 39.3216 20.972C38.9581 21.7757 36.9968 26.0712 36.1428 27.9657C36.7863 26.3947 37.9521 23.274 38.3643 21.8317C39.1848 18.4318 37.2116 16.1002 35.9611 15.5009C34.2221 14.6678 30.5951 14.4496 29.1613 17.6112L29.1236 17.694Z" fill="url(#paint1_radial_302_1399)"/>
<path id="Vector_3" d="M7.66785 28.3574C7.86335 30.5459 7.87285 30.4714 8.2736 35.7629C8.48085 38.4969 6.9941 48.5662 6.9941 48.5662C10.6074 49.7459 18.4341 48.1817 19.5479 35.8997C19.0009 34.6297 19.0593 32.4999 18.4341 27.3024C17.8696 22.6089 13.9986 22.1635 12.3378 22.4957C8.66435 23.2616 7.54535 26.9849 7.66785 28.3574Z" fill="url(#paint2_radial_302_1399)"/>
<path id="Vector_4" d="M7.66785 28.3574C7.86335 30.5459 7.87285 30.4714 8.2736 35.7629C8.48085 38.4969 6.9941 48.5662 6.9941 48.5662C10.6074 49.7459 18.4341 48.1817 19.5479 35.8997C19.0009 34.6297 19.0593 32.4999 18.4341 27.3024C17.8696 22.6089 13.9986 22.1635 12.3378 22.4957C8.66435 23.2616 7.54535 26.9849 7.66785 28.3574Z" fill="url(#paint3_radial_302_1399)"/>
<path id="Vector_5" d="M7.66785 28.3574C7.86335 30.5459 7.87285 30.4714 8.2736 35.7629C8.48085 38.4969 6.9941 48.5662 6.9941 48.5662C10.6074 49.7459 18.4341 48.1817 19.5479 35.8997C19.0009 34.6297 19.0593 32.4999 18.4341 27.3024C17.8696 22.6089 13.9986 22.1635 12.3378 22.4957C8.66435 23.2616 7.54535 26.9849 7.66785 28.3574Z" fill="url(#paint4_radial_302_1399)"/>
<path id="Vector_6" d="M29.1242 17.6941C26.0827 24.4007 22.3502 32.631 19.5482 35.9002C19.9867 39.6412 23.3302 41.4297 26.2112 40.7602C29.844 39.7055 31.222 37.1275 31.222 37.1275C31.222 37.1275 32.1707 35.6587 33.097 34.0415C34.1682 32.1705 33.973 32.2125 35.766 28.8267C36.1177 28.1625 37.8437 23.6554 38.3647 21.8317C39.1855 18.4318 37.212 16.1002 35.9615 15.5009C34.2227 14.6678 30.5957 14.4496 29.1617 17.6112L29.1242 17.6941Z" fill="url(#paint5_radial_302_1399)"/>
<path id="Vector_7" d="M29.1242 17.6941C26.0827 24.4007 22.3502 32.631 19.5482 35.9002C19.9867 39.6412 23.3302 41.4297 26.2112 40.7602C29.844 39.7055 31.222 37.1275 31.222 37.1275C31.222 37.1275 32.1707 35.6587 33.097 34.0415C34.1682 32.1705 33.973 32.2125 35.766 28.8267C36.1177 28.1625 37.8437 23.6554 38.3647 21.8317C39.1855 18.4318 37.212 16.1002 35.9615 15.5009C34.2227 14.6678 30.5957 14.4496 29.1617 17.6112L29.1242 17.6941Z" fill="url(#paint6_linear_302_1399)"/>
<path id="Vector_8" d="M29.1242 17.6941C26.0827 24.4007 22.3502 32.631 19.5482 35.9002C19.9867 39.6412 23.3302 41.4297 26.2112 40.7602C29.844 39.7055 31.222 37.1275 31.222 37.1275C31.222 37.1275 32.1707 35.6587 33.097 34.0415C34.1682 32.1705 33.973 32.2125 35.766 28.8267C36.1177 28.1625 37.8437 23.6554 38.3647 21.8317C39.1855 18.4318 37.212 16.1002 35.9615 15.5009C34.2227 14.6678 30.5957 14.4496 29.1617 17.6112L29.1242 17.6941Z" fill="url(#paint7_radial_302_1399)"/>
<path id="Vector_9" d="M29.1242 17.6941C26.0827 24.4007 22.3502 32.631 19.5482 35.9002C19.9867 39.6412 23.3302 41.4297 26.2112 40.7602C29.844 39.7055 31.222 37.1275 31.222 37.1275C31.222 37.1275 32.1707 35.6587 33.097 34.0415C34.1682 32.1705 33.973 32.2125 35.766 28.8267C36.1177 28.1625 37.8437 23.6554 38.3647 21.8317C39.1855 18.4318 37.212 16.1002 35.9615 15.5009C34.2227 14.6678 30.5957 14.4496 29.1617 17.6112L29.1242 17.6941Z" fill="url(#paint8_radial_302_1399)"/>
<path id="Vector_10" d="M29.1242 17.6941C26.0827 24.4007 22.3502 32.631 19.5482 35.9002C19.9867 39.6412 23.3302 41.4297 26.2112 40.7602C29.844 39.7055 31.222 37.1275 31.222 37.1275C31.222 37.1275 32.1707 35.6587 33.097 34.0415C34.1682 32.1705 33.973 32.2125 35.766 28.8267C36.1177 28.1625 37.8437 23.6554 38.3647 21.8317C39.1855 18.4318 37.212 16.1002 35.9615 15.5009C34.2227 14.6678 30.5957 14.4496 29.1617 17.6112L29.1242 17.6941Z" fill="url(#paint9_linear_302_1399)"/>
<path id="Vector_11" d="M39.3216 20.9716C38.8326 22.0527 35.4528 29.4517 35.7653 28.8264C34.8563 30.8757 32.0418 35.8769 31.2213 37.2442C29.4126 40.2589 31.4541 42.7672 32.7731 43.5332C36.5641 45.7349 38.7411 42.9277 38.7411 42.9277C40.7403 39.9964 42.4128 37.5567 45.7136 32.3614C46.5091 30.8642 47.9596 27.5177 48.5441 25.8954C49.9871 21.8912 47.5998 19.6494 46.1603 18.9395C43.0341 17.4935 40.0641 19.3303 39.3216 20.9716Z" fill="url(#paint10_radial_302_1399)"/>
<path id="Vector_12" d="M39.3216 20.9716C38.8326 22.0527 35.4528 29.4517 35.7653 28.8264C34.8563 30.8757 32.0418 35.8769 31.2213 37.2442C29.4126 40.2589 31.4541 42.7672 32.7731 43.5332C36.5641 45.7349 38.7411 42.9277 38.7411 42.9277C40.7403 39.9964 42.4128 37.5567 45.7136 32.3614C46.5091 30.8642 47.9596 27.5177 48.5441 25.8954C49.9871 21.8912 47.5998 19.6494 46.1603 18.9395C43.0341 17.4935 40.0641 19.3303 39.3216 20.9716Z" fill="url(#paint11_linear_302_1399)"/>
<path id="Vector_13" d="M39.3216 20.9716C38.8326 22.0527 35.4528 29.4517 35.7653 28.8264C34.8563 30.8757 32.0418 35.8769 31.2213 37.2442C29.4126 40.2589 31.4541 42.7672 32.7731 43.5332C36.5641 45.7349 38.7411 42.9277 38.7411 42.9277C40.7403 39.9964 42.4128 37.5567 45.7136 32.3614C46.5091 30.8642 47.9596 27.5177 48.5441 25.8954C49.9871 21.8912 47.5998 19.6494 46.1603 18.9395C43.0341 17.4935 40.0641 19.3303 39.3216 20.9716Z" fill="url(#paint12_radial_302_1399)"/>
<path id="Vector_14" d="M39.3216 20.9716C38.8326 22.0527 35.4528 29.4517 35.7653 28.8264C34.8563 30.8757 32.0418 35.8769 31.2213 37.2442C29.4126 40.2589 31.4541 42.7672 32.7731 43.5332C36.5641 45.7349 38.7411 42.9277 38.7411 42.9277C40.7403 39.9964 42.4128 37.5567 45.7136 32.3614C46.5091 30.8642 47.9596 27.5177 48.5441 25.8954C49.9871 21.8912 47.5998 19.6494 46.1603 18.9395C43.0341 17.4935 40.0641 19.3303 39.3216 20.9716Z" fill="url(#paint13_radial_302_1399)"/>
<path id="Vector_15" d="M39.3216 20.9716C38.8326 22.0527 35.4528 29.4517 35.7653 28.8264C34.8563 30.8757 32.0418 35.8769 31.2213 37.2442C29.4126 40.2589 31.4541 42.7672 32.7731 43.5332C36.5641 45.7349 38.7411 42.9277 38.7411 42.9277C40.7403 39.9964 42.4128 37.5567 45.7136 32.3614C46.5091 30.8642 47.9596 27.5177 48.5441 25.8954C49.9871 21.8912 47.5998 19.6494 46.1603 18.9395C43.0341 17.4935 40.0641 19.3303 39.3216 20.9716Z" fill="url(#paint14_radial_302_1399)"/>
<path id="Vector_16" d="M39.3216 20.9716C38.8326 22.0527 35.4528 29.4517 35.7653 28.8264C34.8563 30.8757 32.0418 35.8769 31.2213 37.2442C29.4126 40.2589 31.4541 42.7672 32.7731 43.5332C36.5641 45.7349 38.7411 42.9277 38.7411 42.9277C40.7403 39.9964 42.4128 37.5567 45.7136 32.3614C46.5091 30.8642 47.9596 27.5177 48.5441 25.8954C49.9871 21.8912 47.5998 19.6494 46.1603 18.9395C43.0341 17.4935 40.0641 19.3303 39.3216 20.9716Z" fill="url(#paint15_linear_302_1399)"/>
<path id="Vector_17" d="M52.5308 31.1125C49.0723 29.393 46.5323 31.3275 45.731 32.3825C43.234 36.1502 40.2553 40.435 38.8785 42.7127C35.2065 48.787 42.726 51.4237 42.726 51.4237C49.6403 43.6307 50.9193 43.2365 51.4173 42.8557C51.683 42.6525 53.2865 40.0485 54.055 38.772C56.1184 34.6297 54.055 31.8702 52.5308 31.1125Z" fill="url(#paint16_radial_302_1399)"/>
<path id="Vector_18" d="M52.5308 31.1125C49.0723 29.393 46.5323 31.3275 45.731 32.3825C43.234 36.1502 40.2553 40.435 38.8785 42.7127C35.2065 48.787 42.726 51.4237 42.726 51.4237C49.6403 43.6307 50.9193 43.2365 51.4173 42.8557C51.683 42.6525 53.2865 40.0485 54.055 38.772C56.1184 34.6297 54.055 31.8702 52.5308 31.1125Z" fill="url(#paint17_linear_302_1399)"/>
<path id="Vector_19" d="M52.5308 31.1125C49.0723 29.393 46.5323 31.3275 45.731 32.3825C43.234 36.1502 40.2553 40.435 38.8785 42.7127C35.2065 48.787 42.726 51.4237 42.726 51.4237C49.6403 43.6307 50.9193 43.2365 51.4173 42.8557C51.683 42.6525 53.2865 40.0485 54.055 38.772C56.1184 34.6297 54.055 31.8702 52.5308 31.1125Z" fill="url(#paint18_radial_302_1399)"/>
<path id="Vector_20" d="M52.5308 31.1125C49.0723 29.393 46.5323 31.3275 45.731 32.3825C43.234 36.1502 40.2553 40.435 38.8785 42.7127C35.2065 48.787 42.726 51.4237 42.726 51.4237C49.6403 43.6307 50.9193 43.2365 51.4173 42.8557C51.683 42.6525 53.2865 40.0485 54.055 38.772C56.1184 34.6297 54.055 31.8702 52.5308 31.1125Z" fill="url(#paint19_radial_302_1399)"/>
<path id="Vector_21" d="M52.5308 31.1125C49.0723 29.393 46.5323 31.3275 45.731 32.3825C43.234 36.1502 40.2553 40.435 38.8785 42.7127C35.2065 48.787 42.726 51.4237 42.726 51.4237C49.6403 43.6307 50.9193 43.2365 51.4173 42.8557C51.683 42.6525 53.2865 40.0485 54.055 38.772C56.1184 34.6297 54.055 31.8702 52.5308 31.1125Z" fill="url(#paint20_radial_302_1399)"/>
<path id="Vector_22" d="M52.5308 31.1125C49.0723 29.393 46.5323 31.3275 45.731 32.3825C43.234 36.1502 40.2553 40.435 38.8785 42.7127C35.2065 48.787 42.726 51.4237 42.726 51.4237C49.6403 43.6307 50.9193 43.2365 51.4173 42.8557C51.683 42.6525 53.2865 40.0485 54.055 38.772C56.1184 34.6297 54.055 31.8702 52.5308 31.1125Z" fill="url(#paint21_radial_302_1399)"/>
<path id="Vector_23" d="M56.6534 51.4333C60.8114 45.7745 54.7968 41.8783 51.4168 42.8553C49.8153 43.8453 47.3443 46.323 46.2888 47.439C39.5856 53.9768 40.7028 55.9938 42.5778 58.2133C44.3946 59.7208 46.7563 60.9263 50.2443 58.2133C51.6511 57.1193 55.1282 53.5088 56.6534 51.4333Z" fill="url(#paint22_radial_302_1399)"/>
<path id="Vector_24" d="M56.6534 51.4333C60.8114 45.7745 54.7968 41.8783 51.4168 42.8553C49.8153 43.8453 47.3443 46.323 46.2888 47.439C39.5856 53.9768 40.7028 55.9938 42.5778 58.2133C44.3946 59.7208 46.7563 60.9263 50.2443 58.2133C51.6511 57.1193 55.1282 53.5088 56.6534 51.4333Z" fill="url(#paint23_radial_302_1399)"/>
<path id="Vector_25" d="M56.6534 51.4333C60.8114 45.7745 54.7968 41.8783 51.4168 42.8553C49.8153 43.8453 47.3443 46.323 46.2888 47.439C39.5856 53.9768 40.7028 55.9938 42.5778 58.2133C44.3946 59.7208 46.7563 60.9263 50.2443 58.2133C51.6511 57.1193 55.1282 53.5088 56.6534 51.4333Z" fill="url(#paint24_radial_302_1399)"/>
<path id="Vector_26" d="M56.6534 51.4333C60.8114 45.7745 54.7968 41.8783 51.4168 42.8553C49.8153 43.8453 47.3443 46.323 46.2888 47.439C39.5856 53.9768 40.7028 55.9938 42.5778 58.2133C44.3946 59.7208 46.7563 60.9263 50.2443 58.2133C51.6511 57.1193 55.1282 53.5088 56.6534 51.4333Z" fill="url(#paint25_radial_302_1399)"/>
<path id="Vector_27" d="M56.6534 51.4333C60.8114 45.7745 54.7968 41.8783 51.4168 42.8553C49.8153 43.8453 47.3443 46.323 46.2888 47.439C39.5856 53.9768 40.7028 55.9938 42.5778 58.2133C44.3946 59.7208 46.7563 60.9263 50.2443 58.2133C51.6511 57.1193 55.1282 53.5088 56.6534 51.4333Z" fill="url(#paint26_linear_302_1399)"/>
<path id="Vector_28" d="M29.1236 17.694C26.0821 24.4007 22.3498 32.631 19.5476 35.9002C19.0006 34.63 19.0593 32.5002 18.4341 27.3027C17.8693 22.6093 13.9986 22.1639 12.3376 22.496C8.66431 23.262 7.54506 26.9852 7.66781 28.358C7.86306 30.5462 7.87256 30.4717 8.27331 35.7632C8.85956 43.501 5.87006 49.3432 5.59656 55.9672C5.59656 68.453 16.5386 74.5882 24.1981 74.5882C30.3256 74.5882 36.4558 70.6675 38.7551 68.707L50.2443 58.2142C51.6511 57.12 55.1282 53.5097 56.6534 51.434C60.8114 45.7755 54.7968 41.8792 51.4168 42.8562C51.6826 42.653 53.2861 40.049 54.0546 38.7725C56.1178 34.63 54.0546 31.8707 52.5303 31.113C49.0718 29.3935 46.5318 31.328 45.7306 32.383C46.0368 31.862 46.9968 29.757 48.5443 25.896C50.0918 22.0349 47.5998 19.6498 46.1606 18.9398C43.0341 17.4939 40.0641 19.3306 39.3216 20.972C38.9581 21.7757 36.9968 26.0712 36.1428 27.9657C36.7863 26.3947 37.9521 23.274 38.3643 21.8317C39.1848 18.4318 37.2116 16.1002 35.9611 15.5009C34.2221 14.6678 30.5951 14.4496 29.1613 17.6112L29.1236 17.694Z" fill="url(#paint27_radial_302_1399)"/>
<path id="Vector_29" d="M29.1236 17.694C26.0821 24.4007 22.3498 32.631 19.5476 35.9002C19.0006 34.63 19.0593 32.5002 18.4341 27.3027C17.8693 22.6093 13.9986 22.1639 12.3376 22.496C8.66431 23.262 7.54506 26.9852 7.66781 28.358C7.86306 30.5462 7.87256 30.4717 8.27331 35.7632C8.85956 43.501 5.87006 49.3432 5.59656 55.9672C5.59656 68.453 16.5386 74.5882 24.1981 74.5882C30.3256 74.5882 36.4558 70.6675 38.7551 68.707L50.2443 58.2142C51.6511 57.12 55.1282 53.5097 56.6534 51.434C60.8114 45.7755 54.7968 41.8792 51.4168 42.8562C51.6826 42.653 53.2861 40.049 54.0546 38.7725C56.1178 34.63 54.0546 31.8707 52.5303 31.113C49.0718 29.3935 46.5318 31.328 45.7306 32.383C46.0368 31.862 46.9968 29.757 48.5443 25.896C50.0918 22.0349 47.5998 19.6498 46.1606 18.9398C43.0341 17.4939 40.0641 19.3306 39.3216 20.972C38.9581 21.7757 36.9968 26.0712 36.1428 27.9657C36.7863 26.3947 37.9521 23.274 38.3643 21.8317C39.1848 18.4318 37.2116 16.1002 35.9611 15.5009C34.2221 14.6678 30.5951 14.4496 29.1613 17.6112L29.1236 17.694Z" fill="url(#paint28_radial_302_1399)"/>
<path id="Vector_30" d="M29.1236 17.694C26.0821 24.4007 22.3498 32.631 19.5476 35.9002C19.0006 34.63 19.0593 32.5002 18.4341 27.3027C17.8693 22.6093 13.9986 22.1639 12.3376 22.496C8.6643 23.262 7.54506 26.9852 7.66781 28.358C7.86306 30.5462 7.87256 30.4717 8.27331 35.7632C8.85956 43.501 5.87006 49.3432 5.59656 55.9672C5.59656 68.453 16.5386 74.5882 24.1981 74.5882C30.3256 74.5882 36.4558 70.6675 38.7551 68.707L50.2443 58.2142C51.6511 57.12 55.1282 53.5097 56.6534 51.434C60.8114 45.7755 54.7968 41.8792 51.4168 42.8562C51.6826 42.653 53.2861 40.049 54.0546 38.7725C56.1178 34.63 54.0546 31.8707 52.5303 31.113C49.0718 29.3935 46.5318 31.328 45.7306 32.383C46.0368 31.862 46.9968 29.757 48.5443 25.896C50.0918 22.0349 47.5998 19.6498 46.1606 18.9398C43.0341 17.4939 40.0641 19.3306 39.3216 20.972C38.9581 21.7757 36.9968 26.0712 36.1428 27.9657C36.7863 26.3947 37.9521 23.274 38.3643 21.8317C39.1848 18.4318 37.2116 16.1002 35.9611 15.5009C34.2221 14.6678 30.5951 14.4496 29.1613 17.6112L29.1236 17.694Z" fill="url(#paint29_radial_302_1399)"/>
<path id="Vector_31" d="M24.8842 26.668C23.0072 30.5045 21.1319 33.9412 19.5474 35.8232C19.3854 37.4972 19.2392 38.4542 18.8387 39.8995C22.0027 36.7355 25.0624 29.8165 24.8842 26.668Z" fill="url(#paint30_radial_302_1399)"/>
<path id="Vector_32" fill-rule="evenodd" clip-rule="evenodd" d="M69.6848 42.252C68.9407 42.252 68.3374 42.8552 68.3374 43.5995C68.3374 45.851 67.4269 48.8645 65.4656 51.2972C63.5378 53.6885 60.6158 55.4997 56.5152 55.4997C55.7711 55.4997 55.1678 56.103 55.1678 56.8472C55.1678 57.5912 55.7711 58.1945 56.5152 58.1945C61.52 58.1945 65.1829 55.9415 67.5635 52.9887C69.9107 50.0775 71.0322 46.467 71.0322 43.5995C71.0322 42.8552 70.429 42.252 69.6848 42.252Z" fill="url(#paint31_radial_302_1399)"/>
<path id="Vector_33" fill-rule="evenodd" clip-rule="evenodd" d="M69.6848 42.252C68.9407 42.252 68.3374 42.8552 68.3374 43.5995C68.3374 45.851 67.4269 48.8645 65.4656 51.2972C63.5378 53.6885 60.6158 55.4997 56.5152 55.4997C55.7711 55.4997 55.1678 56.103 55.1678 56.8472C55.1678 57.5912 55.7711 58.1945 56.5152 58.1945C61.52 58.1945 65.1829 55.9415 67.5635 52.9887C69.9107 50.0775 71.0322 46.467 71.0322 43.5995C71.0322 42.8552 70.429 42.252 69.6848 42.252Z" fill="url(#paint32_radial_302_1399)"/>
<path id="Vector_34" fill-rule="evenodd" clip-rule="evenodd" d="M69.6848 42.252C68.9407 42.252 68.3374 42.8552 68.3374 43.5995C68.3374 45.851 67.4269 48.8645 65.4656 51.2972C63.5378 53.6885 60.6158 55.4997 56.5152 55.4997C55.7711 55.4997 55.1678 56.103 55.1678 56.8472C55.1678 57.5912 55.7711 58.1945 56.5152 58.1945C61.52 58.1945 65.1829 55.9415 67.5635 52.9887C69.9107 50.0775 71.0322 46.467 71.0322 43.5995C71.0322 42.8552 70.429 42.252 69.6848 42.252Z" fill="#9B51E0"/>
<path id="Vector_35" fill-rule="evenodd" clip-rule="evenodd" d="M73.8791 47.0586C73.135 47.0586 72.5317 47.6618 72.5317 48.4061C72.5317 53.1821 68.954 59.5638 61.441 59.5638C60.6969 59.5638 60.0936 60.1671 60.0936 60.9113C60.0936 61.6556 60.6969 62.2588 61.441 62.2588C70.8883 62.2588 75.2266 54.1813 75.2266 48.4061C75.2266 47.6618 74.6233 47.0586 73.8791 47.0586Z" fill="url(#paint33_radial_302_1399)"/>
<path id="Vector_36" fill-rule="evenodd" clip-rule="evenodd" d="M73.8791 47.0586C73.135 47.0586 72.5317 47.6618 72.5317 48.4061C72.5317 53.1821 68.954 59.5638 61.441 59.5638C60.6969 59.5638 60.0936 60.1671 60.0936 60.9113C60.0936 61.6556 60.6969 62.2588 61.441 62.2588C70.8883 62.2588 75.2266 54.1813 75.2266 48.4061C75.2266 47.6618 74.6233 47.0586 73.8791 47.0586Z" fill="#9B51E0"/>
<path id="Vector_37" fill-rule="evenodd" clip-rule="evenodd" d="M23.4092 24.63C24.1535 24.6348 24.7607 24.0355 24.7655 23.2914C24.7802 21.0398 25.7105 18.0323 27.6875 15.6124C29.631 13.2339 32.5647 11.4418 36.6652 11.4686C37.4092 11.4734 38.0165 10.8741 38.0215 10.13C38.0262 9.38584 37.427 8.77867 36.6827 8.77379C31.6782 8.74109 28.0007 10.9701 25.6007 13.9073C23.2347 16.8032 22.0895 20.4061 22.0707 23.2738C22.0657 24.0179 22.6652 24.6251 23.4092 24.63Z" fill="url(#paint34_radial_302_1399)"/>
<path id="Vector_38" fill-rule="evenodd" clip-rule="evenodd" d="M23.4092 24.63C24.1535 24.6348 24.7607 24.0355 24.7655 23.2914C24.7802 21.0398 25.7105 18.0323 27.6875 15.6124C29.631 13.2339 32.5647 11.4418 36.6652 11.4686C37.4092 11.4734 38.0165 10.8741 38.0215 10.13C38.0262 9.38584 37.427 8.77867 36.6827 8.77379C31.6782 8.74109 28.0007 10.9701 25.6007 13.9073C23.2347 16.8032 22.0895 20.4061 22.0707 23.2738C22.0657 24.0179 22.6652 24.6251 23.4092 24.63Z" fill="#9B51E0"/>
<path id="Vector_39" fill-rule="evenodd" clip-rule="evenodd" d="M19.2492 19.7966C19.9935 19.8014 20.6007 19.2021 20.6055 18.458C20.6367 13.682 24.256 7.32376 31.769 7.37286C32.513 7.37771 33.1202 6.77841 33.125 6.03429C33.13 5.29014 32.5307 4.68296 31.7865 4.67809C22.3395 4.61634 17.9485 12.6653 17.9107 18.4404C17.906 19.1845 18.5052 19.7917 19.2492 19.7966Z" fill="url(#paint35_radial_302_1399)"/>
<path id="Vector_40" fill-rule="evenodd" clip-rule="evenodd" d="M19.2492 19.7966C19.9935 19.8014 20.6007 19.2021 20.6055 18.458C20.6367 13.682 24.256 7.32376 31.769 7.37286C32.513 7.37771 33.1202 6.77841 33.125 6.03429C33.13 5.29014 32.5307 4.68296 31.7865 4.67809C22.3395 4.61634 17.9485 12.6653 17.9107 18.4404C17.906 19.1845 18.5052 19.7917 19.2492 19.7966Z" fill="#9B51E0"/>
<g id="Group" filter="url(#filter0_f_302_1399)">
<path id="Vector_41" d="M23.6724 36.0723C28.5161 38.0253 39.4709 44.4403 42.6924 58.733" stroke="#FFC339" stroke-width="2" stroke-linecap="round"/>
</g>
</g>
<defs>
<filter id="filter0_f_302_1399" x="20.6719" y="33.0723" width="25.0205" height="28.6602" filterUnits="userSpaceOnUse" color-interpolation-filters="sRGB">
<feFlood flood-opacity="0" result="BackgroundImageFix"/>
<feBlend mode="normal" in="SourceGraphic" in2="BackgroundImageFix" result="shape"/>
<feGaussianBlur stdDeviation="1" result="effect1_foregroundBlur_302_1399"/>
</filter>
<radialGradient id="paint0_radial_302_1399" cx="0" cy="0" r="1" gradientUnits="userSpaceOnUse" gradientTransform="translate(31.8314 34.5882) rotate(119.899) scale(52.63 34.3825)">
<stop offset="0.00323036" stop-color="#FFC133"/>
<stop offset="0.697824" stop-color="#FFC53F"/>
<stop offset="0.797459" stop-color="#FFAD3E"/>
<stop offset="0.945275" stop-color="#EC7D58"/>
</radialGradient>
<radialGradient id="paint1_radial_302_1399" cx="0" cy="0" r="1" gradientUnits="userSpaceOnUse" gradientTransform="translate(5.59656 46.1507) rotate(-86.9882) scale(31.2253 11.9623)">
<stop offset="0.00323036" stop-color="#FFE849"/>
<stop offset="1" stop-color="#FFE647" stop-opacity="0"/>
</radialGradient>
<radialGradient id="paint2_radial_302_1399" cx="0" cy="0" r="1" gradientUnits="userSpaceOnUse" gradientTransform="translate(9.3466 23.8067) rotate(80.3176) scale(16.7226 6.40637)">
<stop offset="0.00323036" stop-color="#FFE849"/>
<stop offset="1" stop-color="#FFE647" stop-opacity="0"/>
</radialGradient>
<radialGradient id="paint3_radial_302_1399" cx="0" cy="0" r="1" gradientUnits="userSpaceOnUse" gradientTransform="translate(19.5479 33.8774) rotate(180) scale(6.76367 27.4292)">
<stop stop-color="#EE9F2C"/>
<stop offset="1" stop-color="#EE9F2C" stop-opacity="0"/>
</radialGradient>
<radialGradient id="paint4_radial_302_1399" cx="0" cy="0" r="1" gradientUnits="userSpaceOnUse" gradientTransform="translate(16.5799 44.5107) rotate(-85.9144) scale(11.3843 7.90727)">
<stop stop-color="#FFC93D"/>
<stop offset="1" stop-color="#FFC33A" stop-opacity="0"/>
</radialGradient>
<radialGradient id="paint5_radial_302_1399" cx="0" cy="0" r="1" gradientUnits="userSpaceOnUse" gradientTransform="translate(22.9407 27.2287) rotate(28.976) scale(11.9667 24.0387)">
<stop offset="0.563302" stop-color="#F09D2E" stop-opacity="0"/>
<stop offset="1" stop-color="#F09D2E"/>
</radialGradient>
<linearGradient id="paint6_linear_302_1399" x1="29.0535" y1="39.4885" x2="29.0535" y2="33.0257" gradientUnits="userSpaceOnUse">
<stop stop-color="#FFC337"/>
<stop offset="1" stop-color="#FFC337" stop-opacity="0"/>
</linearGradient>
<radialGradient id="paint7_radial_302_1399" cx="0" cy="0" r="1" gradientUnits="userSpaceOnUse" gradientTransform="translate(25.4407 17.7133) rotate(-166.504) scale(8.03435 17.7669)">
<stop stop-color="#FFEC4C"/>
<stop offset="1" stop-color="#FFEC4C" stop-opacity="0"/>
</radialGradient>
<radialGradient id="paint8_radial_302_1399" cx="0" cy="0" r="1" gradientUnits="userSpaceOnUse" gradientTransform="translate(38.5585 14.9687) rotate(146.694) scale(7.84363 6.08123)">
<stop stop-color="#D99F2B"/>
<stop offset="1" stop-color="#D99F2B" stop-opacity="0"/>
</radialGradient>
<linearGradient id="paint9_linear_302_1399" x1="37.3157" y1="30.7602" x2="33.4095" y2="28.8852" gradientUnits="userSpaceOnUse">
<stop stop-color="#A85300"/>
<stop offset="0.824742" stop-color="#A85300" stop-opacity="0"/>
</linearGradient>
<radialGradient id="paint10_radial_302_1399" cx="0" cy="0" r="1" gradientUnits="userSpaceOnUse" gradientTransform="translate(34.2173 30.9264) rotate(30.852) scale(11.5354 24.0721)">
<stop offset="0.563302" stop-color="#F09D2E" stop-opacity="0"/>
<stop offset="1" stop-color="#F09D2E"/>
</radialGradient>
<linearGradient id="paint11_linear_302_1399" x1="39.9998" y1="43.4367" x2="39.9998" y2="36.8419" gradientUnits="userSpaceOnUse">
<stop stop-color="#FFC337"/>
<stop offset="1" stop-color="#FFC337" stop-opacity="0"/>
</linearGradient>
<radialGradient id="paint12_radial_302_1399" cx="0" cy="0" r="1" gradientUnits="userSpaceOnUse" gradientTransform="translate(35.5466 23.5723) rotate(-146.107) scale(7.65537 23.3068)">
<stop stop-color="#FFEC4C"/>
<stop offset="1" stop-color="#FFEC4C" stop-opacity="0"/>
</radialGradient>
<radialGradient id="paint13_radial_302_1399" cx="0" cy="0" r="1" gradientUnits="userSpaceOnUse" gradientTransform="translate(41.3776 33.0254) rotate(-155.095) scale(9.6471 44.0498)">
<stop offset="0.597587" stop-color="#F09D2E" stop-opacity="0"/>
<stop offset="1" stop-color="#F09D2E"/>
</radialGradient>
<radialGradient id="paint14_radial_302_1399" cx="0" cy="0" r="1" gradientUnits="userSpaceOnUse" gradientTransform="translate(50.1276 18.416) rotate(147.399) scale(7.97527 6.35643)">
<stop stop-color="#D99F2B"/>
<stop offset="1" stop-color="#D99F2B" stop-opacity="0"/>
</radialGradient>
<linearGradient id="paint15_linear_302_1399" x1="46.6121" y1="34.5879" x2="44.0128" y2="32.7707" gradientUnits="userSpaceOnUse">
<stop stop-color="#A85300"/>
<stop offset="0.824742" stop-color="#A85300" stop-opacity="0"/>
</linearGradient>
<radialGradient id="paint16_radial_302_1399" cx="0" cy="0" r="1" gradientUnits="userSpaceOnUse" gradientTransform="translate(40.912 40.9257) rotate(42.649) scale(9.55643 18.7134)">
<stop offset="0.563302" stop-color="#F09D2E" stop-opacity="0"/>
<stop offset="1" stop-color="#F09D2E"/>
</radialGradient>
<linearGradient id="paint17_linear_302_1399" x1="46.396" y1="51.4237" x2="46.396" y2="45.8897" gradientUnits="userSpaceOnUse">
<stop stop-color="#FFC337"/>
<stop offset="1" stop-color="#FFC337" stop-opacity="0"/>
</linearGradient>
<radialGradient id="paint18_radial_302_1399" cx="0" cy="0" r="1" gradientUnits="userSpaceOnUse" gradientTransform="translate(43.2573 32.7222) rotate(-167.704) scale(7.27837 15.4176)">
<stop stop-color="#FFEC4C"/>
<stop offset="1" stop-color="#FFEC4C" stop-opacity="0"/>
</radialGradient>
<radialGradient id="paint19_radial_302_1399" cx="0" cy="0" r="1" gradientUnits="userSpaceOnUse" gradientTransform="translate(47.703 42.6872) rotate(-139.783) scale(10.124 51.7573)">
<stop offset="0.597587" stop-color="#F09D2E" stop-opacity="0"/>
<stop offset="1" stop-color="#F09D2E"/>
</radialGradient>
<radialGradient id="paint20_radial_302_1399" cx="0" cy="0" r="1" gradientUnits="userSpaceOnUse" gradientTransform="translate(56.0016 30.4277) rotate(150.497) scale(7.32163 5.51045)">
<stop stop-color="#D99F2B"/>
<stop offset="1" stop-color="#D99F2B" stop-opacity="0"/>
</radialGradient>
<radialGradient id="paint21_radial_302_1399" cx="0" cy="0" r="1" gradientUnits="userSpaceOnUse" gradientTransform="translate(52.1598 44.8222) rotate(-134.236) scale(4.14358 18.7087)">
<stop stop-color="#A85300"/>
<stop offset="0.824742" stop-color="#A85300" stop-opacity="0"/>
</radialGradient>
<radialGradient id="paint22_radial_302_1399" cx="0" cy="0" r="1" gradientUnits="userSpaceOnUse" gradientTransform="translate(43.0368 51.7943) rotate(36.631) scale(9.39505 17.6773)">
<stop offset="0.563302" stop-color="#F09D2E" stop-opacity="0"/>
<stop offset="1" stop-color="#F09D2E"/>
</radialGradient>
<radialGradient id="paint23_radial_302_1399" cx="0" cy="0" r="1" gradientUnits="userSpaceOnUse" gradientTransform="translate(45.5523 44.6918) rotate(-170.022) scale(7.74513 13.4552)">
<stop stop-color="#FFEC4C"/>
<stop offset="1" stop-color="#FFEC4C" stop-opacity="0"/>
</radialGradient>
<radialGradient id="paint24_radial_302_1399" cx="0" cy="0" r="1" gradientUnits="userSpaceOnUse" gradientTransform="translate(50.3211 53.3193) rotate(-145.686) scale(10.0396 48.4702)">
<stop offset="0.597587" stop-color="#F09D2E" stop-opacity="0"/>
<stop offset="1" stop-color="#F09D2E"/>
</radialGradient>
<radialGradient id="paint25_radial_302_1399" cx="0" cy="0" r="1" gradientUnits="userSpaceOnUse" gradientTransform="translate(59.2225 42.7053) rotate(155.452) scale(7.51425 4.9863)">
<stop stop-color="#D99F2B"/>
<stop offset="1" stop-color="#D99F2B" stop-opacity="0"/>
</radialGradient>
<linearGradient id="paint26_linear_302_1399" x1="42.6278" y1="68.9625" x2="48.9193" y2="56.092" gradientUnits="userSpaceOnUse">
<stop stop-color="#FFC337"/>
<stop offset="1" stop-color="#FFC337" stop-opacity="0"/>
</linearGradient>
<radialGradient id="paint27_radial_302_1399" cx="0" cy="0" r="1" gradientUnits="userSpaceOnUse" gradientTransform="translate(20.1278 31.307) rotate(50.986) scale(43.4368 70.2465)">
<stop offset="0.872168" stop-color="#F6814F" stop-opacity="0"/>
<stop offset="1" stop-color="#F7814F"/>
</radialGradient>
<radialGradient id="paint28_radial_302_1399" cx="0" cy="0" r="1" gradientUnits="userSpaceOnUse" gradientTransform="translate(29.1903 31.7757) rotate(103.707) scale(46.1582 50.6458)">
<stop offset="0.853453" stop-color="#F6814F" stop-opacity="0"/>
<stop offset="1" stop-color="#F7814F"/>
</radialGradient>
<radialGradient id="paint29_radial_302_1399" cx="0" cy="0" r="1" gradientUnits="userSpaceOnUse" gradientTransform="translate(18.7216 20.0571) rotate(115.56) scale(7.96723 7.10265)">
<stop stop-color="#D99F2B"/>
<stop offset="1" stop-color="#D99F2B" stop-opacity="0"/>
</radialGradient>
<radialGradient id="paint30_radial_302_1399" cx="0" cy="0" r="1" gradientUnits="userSpaceOnUse" gradientTransform="translate(18.8387 35.29) rotate(30.746) scale(3.034 9.38835)">
<stop offset="0.200941" stop-color="#B4813D"/>
<stop offset="1" stop-color="#B4813D" stop-opacity="0"/>
</radialGradient>
<radialGradient id="paint31_radial_302_1399" cx="0" cy="0" r="1" gradientUnits="userSpaceOnUse" gradientTransform="translate(67.7678 42.9742) rotate(117.929) scale(13.2804 19.6954)">
<stop stop-color="#419FFD"/>
<stop offset="1" stop-color="#4B6DCB"/>
</radialGradient>
<radialGradient id="paint32_radial_302_1399" cx="0" cy="0" r="1" gradientUnits="userSpaceOnUse" gradientTransform="translate(71.5234 43.9637) rotate(177.614) scale(1.87663 3.94937)">
<stop stop-color="#5486C7"/>
<stop offset="1" stop-color="#5486C7" stop-opacity="0"/>
</radialGradient>
<radialGradient id="paint33_radial_302_1399" cx="0" cy="0" r="1" gradientUnits="userSpaceOnUse" gradientTransform="translate(66.7971 49.9011) rotate(85.2877) scale(10.5043 17.6619)">
<stop stop-color="#419FFD"/>
<stop offset="1" stop-color="#4B6DCB"/>
</radialGradient>
<radialGradient id="paint34_radial_302_1399" cx="0" cy="0" r="1" gradientUnits="userSpaceOnUse" gradientTransform="translate(33.7307 5.86554) rotate(119.804) scale(11.158 16.5478)">
<stop stop-color="#419FFD"/>
<stop offset="1" stop-color="#4B6DCB"/>
</radialGradient>
<radialGradient id="paint35_radial_302_1399" cx="0" cy="0" r="1" gradientUnits="userSpaceOnUse" gradientTransform="translate(29.0327 1.90568) rotate(119.31) scale(13.8616 20.5626)">
<stop stop-color="#419FFD"/>
<stop offset="1" stop-color="#4B6DCB"/>
</radialGradient>
</defs>
</svg>
