<svg width="41" height="40" viewBox="0 0 41 40" fill="none" xmlns="http://www.w3.org/2000/svg">
<mask id="mask0_311_2881" style="mask-type:alpha" maskUnits="userSpaceOnUse" x="0" y="0" width="41" height="40">
<rect x="0.5" width="40" height="40" fill="#D9D9D9"/>
</mask>
<g mask="url(#mask0_311_2881)">
<path d="M5.49798 28.7484H35.498C35.8522 28.7484 36.149 28.8682 36.3884 29.1079C36.6281 29.3477 36.748 29.6446 36.748 29.9988C36.748 30.3532 36.6281 30.65 36.3884 30.8892C36.149 31.1286 35.8522 31.2484 35.498 31.2484H5.49798C5.14382 31.2484 4.84701 31.1285 4.60757 30.8888C4.36784 30.649 4.24798 30.3521 4.24798 29.9979C4.24798 29.6435 4.36784 29.3467 4.60757 29.1075C4.84701 28.8681 5.14382 28.7484 5.49798 28.7484ZM7.16465 18.5688L6.1484 20.37C6.01618 20.6134 5.81757 20.7682 5.55257 20.8346C5.28757 20.901 5.03382 20.8678 4.79132 20.735C4.54854 20.6022 4.39409 20.4029 4.32798 20.1371C4.26187 19.8715 4.29618 19.6181 4.4309 19.3767L5.44673 17.5754H3.41465C3.1277 17.5754 2.89034 17.4815 2.70257 17.2938C2.51479 17.1063 2.4209 16.8692 2.4209 16.5825C2.4209 16.2956 2.51479 16.0581 2.70257 15.87C2.89034 15.682 3.1277 15.5879 3.41465 15.5879H5.44673L4.4309 13.87C4.29618 13.6286 4.26187 13.3752 4.32798 13.1096C4.39409 12.8438 4.54854 12.6445 4.79132 12.5117C5.03382 12.3789 5.28757 12.3457 5.55257 12.4121C5.81757 12.4785 6.01618 12.6334 6.1484 12.8767L7.16465 14.5946L8.1809 12.8767C8.31312 12.6334 8.51173 12.4785 8.77673 12.4121C9.04173 12.3457 9.29548 12.3789 9.53798 12.5117C9.78076 12.6445 9.9352 12.8438 10.0013 13.1096C10.0674 13.3752 10.0331 13.6286 9.8984 13.87L8.88256 15.5879H10.9146C11.2016 15.5879 11.439 15.6818 11.6267 15.8696C11.8145 16.0571 11.9084 16.2942 11.9084 16.5809C11.9084 16.8678 11.8145 17.1053 11.6267 17.2934C11.439 17.4814 11.2016 17.5754 10.9146 17.5754H8.88256L9.8984 19.3767C10.0331 19.6181 10.0674 19.8715 10.0013 20.1371C9.9352 20.4029 9.78076 20.6022 9.53798 20.735C9.29548 20.8678 9.04173 20.901 8.77673 20.8346C8.51173 20.7682 8.31312 20.6134 8.1809 20.37L7.16465 18.5688ZM20.498 18.5688L19.4817 20.37C19.3495 20.6134 19.1509 20.7682 18.8859 20.8346C18.6209 20.901 18.3672 20.8678 18.1247 20.735C17.8819 20.6022 17.7274 20.4029 17.6613 20.1371C17.5952 19.8715 17.6295 19.6181 17.7642 19.3767L18.7801 17.5754H16.748C16.461 17.5754 16.2237 17.4815 16.0359 17.2938C15.8481 17.1063 15.7542 16.8692 15.7542 16.5825C15.7542 16.2956 15.8481 16.0581 16.0359 15.87C16.2237 15.682 16.461 15.5879 16.748 15.5879H18.7801L17.7642 13.87C17.6295 13.6286 17.5952 13.3752 17.6613 13.1096C17.7274 12.8438 17.8819 12.6445 18.1247 12.5117C18.3672 12.3789 18.6209 12.3457 18.8859 12.4121C19.1509 12.4785 19.3495 12.6334 19.4817 12.8767L20.498 14.5946L21.5142 12.8767C21.6465 12.6334 21.8451 12.4785 22.1101 12.4121C22.3751 12.3457 22.6288 12.3789 22.8713 12.5117C23.1141 12.6445 23.2685 12.8438 23.3347 13.1096C23.4008 13.3752 23.3665 13.6286 23.2317 13.87L22.2159 15.5879H24.248C24.5349 15.5879 24.7723 15.6818 24.9601 15.8696C25.1478 16.0571 25.2417 16.2942 25.2417 16.5809C25.2417 16.8678 25.1478 17.1053 24.9601 17.2934C24.7723 17.4814 24.5349 17.5754 24.248 17.5754H22.2159L23.2317 19.3767C23.3665 19.6181 23.4008 19.8715 23.3347 20.1371C23.2685 20.4029 23.1141 20.6022 22.8713 20.735C22.6288 20.8678 22.3751 20.901 22.1101 20.8346C21.8451 20.7682 21.6465 20.6134 21.5142 20.37L20.498 18.5688ZM33.8313 18.5688L32.8151 20.37C32.6828 20.6134 32.4842 20.7682 32.2192 20.8346C31.9542 20.901 31.7005 20.8678 31.458 20.735C31.2152 20.6022 31.0608 20.4029 30.9946 20.1371C30.9285 19.8715 30.9628 19.6181 31.0976 19.3767L32.1134 17.5754H30.0813C29.7944 17.5754 29.557 17.4815 29.3692 17.2938C29.1815 17.1063 29.0876 16.8692 29.0876 16.5825C29.0876 16.2956 29.1815 16.0581 29.3692 15.87C29.557 15.682 29.7944 15.5879 30.0813 15.5879H32.1134L31.0976 13.87C30.9628 13.6286 30.9285 13.3752 30.9946 13.1096C31.0608 12.8438 31.2152 12.6445 31.458 12.5117C31.7005 12.3789 31.9542 12.3457 32.2192 12.4121C32.4842 12.4785 32.6828 12.6334 32.8151 12.8767L33.8313 14.5946L34.8476 12.8767C34.9798 12.6334 35.1784 12.4785 35.4434 12.4121C35.7084 12.3457 35.9622 12.3789 36.2047 12.5117C36.4474 12.6445 36.6019 12.8438 36.668 13.1096C36.7341 13.3752 36.6998 13.6286 36.5651 13.87L35.5492 15.5879H37.5813C37.8683 15.5879 38.1056 15.6818 38.2934 15.8696C38.4812 16.0571 38.5751 16.2942 38.5751 16.5809C38.5751 16.8678 38.4812 17.1053 38.2934 17.2934C38.1056 17.4814 37.8683 17.5754 37.5813 17.5754H35.5492L36.5651 19.3767C36.6998 19.6181 36.7341 19.8715 36.668 20.1371C36.6019 20.4029 36.4474 20.6022 36.2047 20.735C35.9622 20.8678 35.7084 20.901 35.4434 20.8346C35.1784 20.7682 34.9798 20.6134 34.8476 20.37L33.8313 18.5688Z" fill="#1C1B1F"/>
</g>
</svg>
