<svg width="52" height="52" viewBox="0 0 52 52" fill="none" xmlns="http://www.w3.org/2000/svg">
<g id="Group 770616">
<g id="location_on">
<mask id="mask0_434_398" style="mask-type:alpha" maskUnits="userSpaceOnUse" x="0" y="0" width="52" height="52">
<rect id="Bounding box" width="52" height="52" fill="#D9D9D9"/>
</mask>
<g mask="url(#mask0_434_398)">
<path id="location_on_2" d="M25.997 46.5667C25.459 46.5667 24.9218 46.4721 24.3856 46.2829C23.849 46.0936 23.3698 45.8098 22.948 45.4314C20.5491 43.2387 18.4296 41.1089 16.5894 39.0419C14.7491 36.9749 13.2135 34.9669 11.9825 33.018C10.7511 31.0687 9.81726 29.1808 9.18098 27.3543C8.5447 25.5278 8.22656 23.7589 8.22656 22.0476C8.22656 16.5125 10.0132 12.103 13.5864 8.81904C17.1595 5.53473 21.2975 3.89258 26.0003 3.89258C30.703 3.89258 34.841 5.53473 38.4142 8.81904C41.9874 12.103 43.774 16.5125 43.774 22.0476C43.774 23.7589 43.4558 25.5278 42.8196 27.3543C42.1833 29.1808 41.2495 31.0687 40.0181 33.018C38.787 34.9669 37.2514 36.9749 35.4112 39.0419C33.571 41.1089 31.4514 43.2387 29.0526 45.4314C28.6297 45.8098 28.1492 46.0936 27.6112 46.2829C27.0731 46.4721 26.5351 46.5667 25.997 46.5667ZM26.0003 26.1291C27.2353 26.1291 28.2877 25.6939 29.1576 24.8237C30.0279 23.9537 30.4631 22.9013 30.4631 21.6663C30.4631 20.4313 30.0279 19.3788 29.1576 18.5089C28.2877 17.6386 27.2353 17.2035 26.0003 17.2035C24.7653 17.2035 23.7128 17.6386 22.8429 18.5089C21.9726 19.3788 21.5375 20.4313 21.5375 21.6663C21.5375 22.9013 21.9726 23.9537 22.8429 24.8237C23.7128 25.6939 24.7653 26.1291 26.0003 26.1291Z" fill="#9B51E0"/>
</g>
</g>
</g>
</svg>
