<svg width="34" height="36" viewBox="0 0 34 36" fill="none" xmlns="http://www.w3.org/2000/svg">
<path id="Vector" d="M19.1387 2.88865C19.7253 3.90608 20.1269 6.42942 20.3378 9.77074H24.0853V6.2242C24.0044 6.18662 23.9264 6.14327 23.8512 6.09413C23.7097 6.00453 23.5797 5.90047 23.467 5.78775L23.4525 5.77329C23.2532 5.57385 23.0942 5.33395 22.9844 5.06803C22.8747 4.805 22.814 4.51596 22.814 4.21247C22.814 3.91186 22.8747 3.62571 22.9844 3.35979C23.0971 3.0852 23.2647 2.83952 23.467 2.6343C23.6721 2.42908 23.9177 2.26432 24.1922 2.1516C24.4551 2.04176 24.7441 1.98106 25.0445 1.98106C25.345 1.98106 25.6311 2.04176 25.8969 2.1516C26.1714 2.26432 26.417 2.43197 26.6221 2.6343C26.8273 2.83952 26.992 3.0852 27.1046 3.3569L27.1104 3.37425C27.2144 3.63438 27.2722 3.91764 27.2722 4.20958C27.2722 4.51018 27.2115 4.79633 27.1018 5.06225C26.9891 5.33684 26.8215 5.58253 26.6192 5.78775L26.6019 5.80509C26.5008 5.90336 26.3881 5.99586 26.2696 6.0739C26.2061 6.11725 26.1396 6.15483 26.0703 6.1924V10.7708C26.0703 11.0454 25.9576 11.294 25.7784 11.4732C25.5993 11.6524 25.3508 11.7651 25.0763 11.7651H20.4361C20.4707 12.7161 20.4938 13.7162 20.5025 14.748H29.2976C29.3352 14.6729 29.3757 14.6006 29.419 14.5313L29.4306 14.5168C29.5143 14.3867 29.6126 14.2682 29.7166 14.1642C29.9217 13.959 30.1673 13.7942 30.4418 13.6815L30.4592 13.6757C30.7192 13.5716 31.0024 13.5109 31.2942 13.5109C31.5947 13.5109 31.8807 13.5716 32.1465 13.6815C32.421 13.7942 32.6666 13.9619 32.8717 14.1642C33.0769 14.3694 33.2416 14.6151 33.3543 14.8897C33.4641 15.1556 33.5247 15.4417 33.5247 15.7423C33.5247 16.043 33.4641 16.3291 33.3543 16.595C33.2416 16.8696 33.074 17.1153 32.8717 17.3205C32.6666 17.5257 32.421 17.6905 32.1465 17.8032L32.1292 17.809C31.8692 17.9131 31.586 17.9709 31.2942 17.9709C30.9937 17.9709 30.7047 17.9102 30.4418 17.8003C30.1702 17.6876 29.9246 17.5228 29.7166 17.3176C29.6068 17.2078 29.5086 17.0864 29.4219 16.9505C29.3757 16.8812 29.3352 16.8089 29.2976 16.7338H20.5054C20.4967 17.861 20.4736 19.0143 20.4361 20.1878H31.1873C31.4618 20.1878 31.7102 20.3005 31.8894 20.4797C32.0685 20.659 32.1812 20.9075 32.1812 21.1821V28.5614C32.2765 28.6018 32.3661 28.6481 32.4528 28.7001C32.6088 28.7926 32.7504 28.9053 32.8775 29.0325C33.0827 29.2377 33.2474 29.4834 33.36 29.758L33.3658 29.7753C33.4698 30.0355 33.5305 30.3187 33.5305 30.6107C33.5305 30.9113 33.4698 31.1974 33.36 31.4633C33.2474 31.7379 33.0798 31.9836 32.8775 32.1888C32.6724 32.3941 32.4268 32.5588 32.1523 32.6715C31.8894 32.7814 31.6004 32.8421 31.3 32.8421C30.9995 32.8421 30.7134 32.7814 30.4476 32.6715C30.1731 32.5588 29.9275 32.3912 29.7224 32.1888C29.5172 31.9836 29.3525 31.7379 29.2399 31.4633C29.1301 31.2003 29.0694 30.9113 29.0694 30.6107C29.0694 30.3101 29.1301 30.021 29.2399 29.758C29.3525 29.4834 29.5201 29.2377 29.7224 29.0325C29.8148 28.94 29.9189 28.8533 30.0286 28.7753C30.0807 28.7377 30.1356 28.703 30.1933 28.6712V22.1793H20.358C20.3147 23.1158 20.2627 24.0552 20.1991 24.9917H23.389C23.6634 24.9917 23.9119 25.1044 24.0911 25.2836C24.2702 25.4628 24.3829 25.7114 24.3829 25.986V29.9343C24.4551 29.9719 24.5216 30.0124 24.5909 30.0557C24.7238 30.1424 24.8423 30.2407 24.9492 30.3476L24.9665 30.365C25.163 30.5673 25.3248 30.8072 25.4346 31.0731C25.5444 31.3362 25.6051 31.6252 25.6051 31.9258C25.6051 32.2264 25.5444 32.5155 25.4346 32.7785L25.4259 32.7958C25.3133 33.0646 25.1486 33.3045 24.9492 33.504L24.9347 33.5184C24.7325 33.7179 24.4927 33.8797 24.2298 33.9896C23.9668 34.0994 23.675 34.1601 23.3745 34.1601C23.074 34.1601 22.788 34.0994 22.5222 33.9896C22.2477 33.8768 22.0021 33.7092 21.7969 33.5069L21.7796 33.4895C21.5831 33.2872 21.4213 33.0473 21.3115 32.7814C21.2017 32.5155 21.1411 32.2293 21.1411 31.9287C21.1411 31.6281 21.2017 31.3419 21.3115 31.076C21.4242 30.8014 21.5889 30.5557 21.794 30.3505C21.9067 30.2378 22.0339 30.1366 22.1668 30.0499C22.239 30.0037 22.3141 29.9603 22.3921 29.9227V26.9832H20.0518C20.02 27.3792 19.9853 27.7752 19.9506 28.1683C19.9044 28.677 19.7571 29.6164 19.8524 30.0817C20.1067 31.3159 18.9943 35.0388 15.7236 35.7238C14.1113 36.0591 12.4442 35.5648 11.1873 34.5821C10.1818 33.7988 9.42769 32.6975 9.1561 31.4518C8.63024 31.4315 8.09571 31.3246 7.57563 31.1512C6.42568 30.7639 5.31906 30.0095 4.45515 29.0094C3.58546 28.0064 2.95559 26.7462 2.75622 25.3443C2.6551 24.613 2.66954 23.85 2.83134 23.0638C2.26792 22.5522 1.78252 21.977 1.39824 21.3498C0.72791 20.2774 0.360964 19.0692 0.375411 17.8263C0.389858 16.5748 0.788586 15.3059 1.6525 14.1266C2.15524 13.4416 2.8169 12.7883 3.65481 12.19C3.64614 11.9617 3.64614 11.7333 3.65192 11.5079C3.71837 9.68114 4.39158 8.07407 5.37396 6.87454C6.391 5.63166 7.75188 4.81945 9.15032 4.62002H9.1561C9.20522 4.4148 9.263 4.21247 9.33813 4.01592C9.78886 2.79327 10.7163 1.75272 11.8518 1.09081C12.996 0.426018 14.3685 0.131195 15.7062 0.408675C16.992 0.680374 18.217 1.44923 19.1387 2.88865ZM9.53749 12.19C10.0056 11.7304 10.7568 11.7362 11.2191 12.2045C11.6785 12.6727 11.6727 13.4242 11.2046 13.8867C10.1847 14.8926 9.65306 16.1875 9.59528 17.5113C9.54038 18.8756 9.98245 20.2803 10.9128 21.4336C11.326 21.9452 11.2422 22.6938 10.7308 23.1071C10.2194 23.5205 9.47103 23.4366 9.05786 22.925C7.75477 21.3093 7.13645 19.3438 7.21446 17.4159C7.29826 15.5024 8.06682 13.6352 9.53749 12.19Z" fill="#9B51E0"/>
</svg>
