<svg width="32" height="33" viewBox="0 0 32 33" fill="none" xmlns="http://www.w3.org/2000/svg">
<g id="visibility_off">
<mask id="mask0_302_1569" style="mask-type:alpha" maskUnits="userSpaceOnUse" x="0" y="0" width="32" height="33">
<rect id="Bounding box" y="0.5" width="32" height="32" fill="#D9D9D9"/>
</mask>
<g mask="url(#mask0_302_1569)">
<path id="visibility_off_2" d="M19.8371 11.9965C20.3789 12.5385 20.7976 13.1971 21.0934 13.9722C21.3892 14.7475 21.5011 15.5258 21.4291 16.3069C21.4291 16.5633 21.3369 16.7804 21.1524 16.9582C20.9677 17.136 20.7472 17.2249 20.4907 17.2249C20.2343 17.2249 20.0172 17.136 19.8394 16.9582C19.6616 16.7804 19.5727 16.5633 19.5727 16.3069C19.6583 15.7206 19.6101 15.1651 19.4281 14.6402C19.2461 14.1155 18.9662 13.6643 18.5884 13.2865C18.2106 12.9088 17.7551 12.622 17.2217 12.4262C16.6884 12.2304 16.126 12.1795 15.5344 12.2735C15.278 12.2822 15.0566 12.1963 14.8704 12.0159C14.684 11.8356 14.5865 11.6173 14.5781 11.3609C14.5694 11.1044 14.6519 10.883 14.8254 10.6965C14.999 10.5103 15.214 10.413 15.4704 10.4045C16.2464 10.3156 17.0263 10.4169 17.8101 10.7082C18.5939 10.9998 19.2695 11.4292 19.8371 11.9965ZM16.0011 8.4992C15.5275 8.4992 15.063 8.52231 14.6074 8.56854C14.1519 8.61454 13.6984 8.69053 13.2471 8.79653C12.9633 8.85476 12.7077 8.8142 12.4804 8.67487C12.2531 8.53554 12.0967 8.33509 12.0114 8.07354C11.9259 7.80354 11.9541 7.54676 12.0961 7.3032C12.2379 7.05965 12.4437 6.90876 12.7137 6.85053C13.2506 6.72231 13.793 6.63176 14.3407 6.57887C14.8887 6.52576 15.4422 6.4992 16.0011 6.4992C18.866 6.4992 21.4976 7.24365 23.8961 8.73254C26.2943 10.2214 28.1386 12.236 29.4291 14.7762C29.518 14.9453 29.5825 15.1158 29.6227 15.2875C29.663 15.4593 29.6831 15.641 29.6831 15.8325C29.6831 16.0241 29.6664 16.2058 29.6331 16.3775C29.5997 16.5493 29.5386 16.7198 29.4497 16.8889C29.0413 17.7435 28.5447 18.5405 27.9601 19.2799C27.3754 20.0192 26.7317 20.6983 26.0291 21.3172C25.8224 21.5019 25.5862 21.5783 25.3204 21.5465C25.0544 21.515 24.836 21.3821 24.6651 21.1479C24.4942 20.9136 24.4233 20.6624 24.4524 20.3942C24.4815 20.1258 24.5994 19.8992 24.8061 19.7145C25.4079 19.1692 25.9566 18.5731 26.4524 17.9262C26.9482 17.2791 27.3755 16.5812 27.7344 15.8325C26.6233 13.5881 25.0177 11.8048 22.9177 10.4825C20.8177 9.16031 18.5122 8.4992 16.0011 8.4992ZM16.0011 25.1659C13.1942 25.1659 10.6215 24.4159 8.28308 22.9159C5.94463 21.4159 4.08574 19.4402 2.70641 16.9889C2.5953 16.8198 2.51408 16.636 2.46274 16.4375C2.41141 16.2393 2.38574 16.0376 2.38574 15.8325C2.38574 15.6274 2.40796 15.4291 2.45241 15.2375C2.49685 15.0462 2.57463 14.8591 2.68574 14.6762C3.18152 13.7702 3.74308 12.9073 4.37041 12.0875C4.99774 11.268 5.71908 10.5334 6.53441 9.88387L3.52408 6.85287C3.33963 6.65465 3.24863 6.4192 3.25108 6.14654C3.25374 5.87387 3.35163 5.64098 3.54474 5.44787C3.73785 5.25476 3.97208 5.1582 4.24741 5.1582C4.52252 5.1582 4.75663 5.25476 4.94974 5.44787L27.0524 27.5505C27.2371 27.7352 27.335 27.9638 27.3461 28.2362C27.3572 28.5089 27.2593 28.7486 27.0524 28.9555C26.8593 29.1486 26.6251 29.2452 26.3497 29.2452C26.0746 29.2452 25.8405 29.1486 25.6474 28.9555L20.9551 24.3042C20.1686 24.6084 19.3604 24.8281 18.5304 24.9632C17.7006 25.0983 16.8575 25.1659 16.0011 25.1659ZM7.93974 11.2889C7.15841 11.8924 6.45619 12.5749 5.83308 13.3362C5.20996 14.0978 4.68819 14.9299 4.26774 15.8325C5.37885 18.077 6.98441 19.8603 9.08441 21.1825C11.1844 22.5048 13.49 23.1659 16.0011 23.1659C16.5737 23.1659 17.1374 23.1274 17.6921 23.0505C18.2467 22.9736 18.7976 22.8549 19.3447 22.6942L17.6574 20.9659C17.3874 21.0839 17.1177 21.1638 16.8484 21.2055C16.5793 21.2475 16.2969 21.2685 16.0011 21.2685C14.4882 21.2685 13.204 20.7408 12.1484 19.6852C11.0929 18.6296 10.5651 17.3454 10.5651 15.8325C10.5651 15.5368 10.5882 15.2543 10.6344 14.9852C10.6806 14.7159 10.7584 14.4462 10.8677 14.1762L7.93974 11.2889Z" fill="#1C1B1F"/>
</g>
</g>
</svg>
