<svg width="32" height="32" viewBox="0 0 32 32" fill="none" xmlns="http://www.w3.org/2000/svg">
<mask id="mask0_5467_2950" style="mask-type:alpha" maskUnits="userSpaceOnUse" x="0" y="0" width="32" height="32">
<rect width="32" height="32" fill="#D9D9D9"/>
</mask>
<g mask="url(#mask0_5467_2950)">
<path d="M16.0039 20.7693C17.5148 20.7693 18.798 20.2406 19.8536 19.183C20.9091 18.1254 21.4369 16.8412 21.4369 15.3303C21.4369 13.8194 20.9081 12.5362 19.8506 11.4807C18.793 10.4251 17.5088 9.89733 15.9979 9.89733C14.487 9.89733 13.2038 10.4261 12.1483 11.4837C11.0927 12.5412 10.5649 13.8254 10.5649 15.3363C10.5649 16.8472 11.0937 18.1304 12.1513 19.186C13.2088 20.2416 14.493 20.7693 16.0039 20.7693ZM16.0009 18.9333C15.0009 18.9333 14.1509 18.5833 13.4509 17.8833C12.7509 17.1833 12.4009 16.3333 12.4009 15.3333C12.4009 14.3333 12.7509 13.4833 13.4509 12.7833C14.1509 12.0833 15.0009 11.7333 16.0009 11.7333C17.0009 11.7333 17.8509 12.0833 18.5509 12.7833C19.2509 13.4833 19.6009 14.3333 19.6009 15.3333C19.6009 16.3333 19.2509 17.1833 18.5509 17.8833C17.8509 18.5833 17.0009 18.9333 16.0009 18.9333ZM16.0009 24.6667C13.194 24.6667 10.6269 23.9179 8.29958 22.4203C5.97225 20.923 4.11458 18.953 2.72658 16.5103C2.61547 16.3188 2.53425 16.1258 2.48292 15.9313C2.43181 15.7369 2.40625 15.5373 2.40625 15.3327C2.40625 15.128 2.43181 14.9287 2.48292 14.7347C2.53425 14.5407 2.61547 14.3479 2.72658 14.1563C4.11458 11.7137 5.97225 9.74367 8.29958 8.24633C10.6269 6.74878 13.194 6 16.0009 6C18.8078 6 21.3749 6.74878 23.7023 8.24633C26.0296 9.74367 27.8872 11.7137 29.2752 14.1563C29.3864 14.3479 29.4676 14.5409 29.5189 14.7353C29.57 14.9298 29.5956 15.1293 29.5956 15.334C29.5956 15.5387 29.57 15.738 29.5189 15.932C29.4676 16.126 29.3864 16.3188 29.2752 16.5103C27.8872 18.953 26.0296 20.923 23.7023 22.4203C21.3749 23.9179 18.8078 24.6667 16.0009 24.6667ZM16.0009 22.6667C18.512 22.6667 20.8176 22.0056 22.9176 20.6833C25.0176 19.3611 26.6231 17.5778 27.7343 15.3333C26.6231 13.0889 25.0176 11.3056 22.9176 9.98333C20.8176 8.66111 18.512 8 16.0009 8C13.4898 8 11.1843 8.66111 9.08425 9.98333C6.98425 11.3056 5.37869 13.0889 4.26758 15.3333C5.37869 17.5778 6.98425 19.3611 9.08425 20.6833C11.1843 22.0056 13.4898 22.6667 16.0009 22.6667Z" fill="#1C1B1F"/>
</g>
</svg>
