<svg width="127" height="70" viewBox="0 0 127 70" fill="none" xmlns="http://www.w3.org/2000/svg">
<rect width="127" height="70" rx="16" fill="white"/>
<path d="M12.4908 30L16.8468 23.016L16.8828 23.304L12.8508 16.86H16.5228L18.7728 20.658H19.2408L21.4188 16.86H24.9828L20.9688 23.34L20.9148 23.052L25.4148 30H21.7428L19.0608 25.662H18.5928L16.0548 30H12.4908ZM26.8993 30V16.86H30.2473V30H26.8993ZM32.9453 30V16.752H36.2933V30H32.9453ZM40.8653 30L37.1753 24.42H40.8113L44.7173 30H40.8653ZM35.4473 25.968V23.394H38.5973C38.9933 23.394 39.3353 23.316 39.6233 23.16C39.9113 23.004 40.1333 22.782 40.2893 22.494C40.4573 22.206 40.5413 21.87 40.5413 21.486C40.5413 21.09 40.4573 20.748 40.2893 20.46C40.1333 20.172 39.9113 19.95 39.6233 19.794C39.3353 19.638 38.9933 19.56 38.5973 19.56H35.4473V16.752H38.3993C39.5393 16.752 40.5233 16.926 41.3513 17.274C42.1793 17.61 42.8153 18.114 43.2593 18.786C43.7033 19.446 43.9253 20.268 43.9253 21.252V21.54C43.9253 22.524 43.6973 23.346 43.2413 24.006C42.7973 24.654 42.1613 25.146 41.3333 25.482C40.5173 25.806 39.5393 25.968 38.3993 25.968H35.4473ZM52.2669 30.36C51.0789 30.36 50.0589 30.156 49.2069 29.748C48.3549 29.328 47.6529 28.782 47.1009 28.11C46.5489 27.426 46.1409 26.688 45.8769 25.896C45.6129 25.104 45.4809 24.336 45.4809 23.592V23.196C45.4809 22.368 45.6129 21.558 45.8769 20.766C46.1529 19.962 46.5669 19.236 47.1189 18.588C47.6829 17.94 48.3849 17.424 49.2249 17.04C50.0649 16.656 51.0489 16.464 52.1769 16.464C53.3769 16.464 54.4389 16.692 55.3629 17.148C56.2989 17.592 57.0489 18.222 57.6129 19.038C58.1769 19.842 58.5069 20.778 58.6029 21.846H55.2549C55.1709 21.39 54.9909 20.994 54.7149 20.658C54.4389 20.322 54.0849 20.064 53.6529 19.884C53.2209 19.692 52.7289 19.596 52.1769 19.596C51.6609 19.596 51.1929 19.686 50.7729 19.866C50.3649 20.046 50.0169 20.304 49.7289 20.64C49.4529 20.964 49.2369 21.36 49.0809 21.828C48.9369 22.296 48.8649 22.824 48.8649 23.412C48.8649 24 48.9369 24.528 49.0809 24.996C49.2369 25.464 49.4589 25.866 49.7469 26.202C50.0469 26.538 50.4069 26.796 50.8269 26.976C51.2469 27.144 51.7269 27.228 52.2669 27.228C53.1069 27.228 53.8149 27.024 54.3909 26.616C54.9789 26.208 55.3329 25.662 55.4529 24.978H58.8009C58.6929 25.962 58.3629 26.862 57.8109 27.678C57.2589 28.494 56.5149 29.148 55.5789 29.64C54.6429 30.12 53.5389 30.36 52.2669 30.36ZM66.1765 30.36C64.9165 30.36 63.8485 30.126 62.9725 29.658C62.1085 29.19 61.4485 28.53 60.9925 27.678C60.5365 26.814 60.3085 25.794 60.3085 24.618V16.86H63.6565V24.69C63.6565 25.206 63.7525 25.656 63.9445 26.04C64.1485 26.424 64.4365 26.718 64.8085 26.922C65.1805 27.126 65.6365 27.228 66.1765 27.228C66.7165 27.228 67.1725 27.126 67.5445 26.922C67.9165 26.718 68.1985 26.43 68.3905 26.058C68.5825 25.674 68.6785 25.218 68.6785 24.69V16.86H72.0265V24.618C72.0265 25.794 71.7985 26.814 71.3425 27.678C70.8985 28.53 70.2385 29.19 69.3625 29.658C68.4985 30.126 67.4365 30.36 66.1765 30.36ZM74.4472 30V16.86H77.7952V30H74.4472ZM77.4352 30V27.084H82.7632V30H77.4352ZM83.437 30L87.649 16.86H93.013L97.369 30H93.913L90.529 19.2L91.483 19.56H89.107L90.079 19.2L86.785 30H83.437ZM86.875 26.958L87.883 24.222H92.869L93.877 26.958H86.875ZM98.8457 30V16.752H102.194V30H98.8457ZM106.766 30L103.076 24.42H106.712L110.618 30H106.766ZM101.348 25.968V23.394H104.498C104.894 23.394 105.236 23.316 105.524 23.16C105.812 23.004 106.034 22.782 106.19 22.494C106.358 22.206 106.442 21.87 106.442 21.486C106.442 21.09 106.358 20.748 106.19 20.46C106.034 20.172 105.812 19.95 105.524 19.794C105.236 19.638 104.894 19.56 104.498 19.56H101.348V16.752H104.3C105.44 16.752 106.424 16.926 107.252 17.274C108.08 17.61 108.716 18.114 109.16 18.786C109.604 19.446 109.826 20.268 109.826 21.252V21.54C109.826 22.524 109.598 23.346 109.142 24.006C108.698 24.654 108.062 25.146 107.234 25.482C106.418 25.806 105.44 25.968 104.3 25.968H101.348ZM23.298 53V41.084H25.062V53H23.298ZM19.302 41.444V39.86H29.058V41.444H19.302ZM31.4295 53V39.86H33.1935V53H31.4295ZM32.8335 53V51.416H39.2055V53H32.8335ZM32.8335 47.114V45.53H38.6475V47.114H32.8335ZM32.8335 41.444V39.86H39.0255V41.444H32.8335ZM47.823 53.324C46.623 53.324 45.597 53.114 44.745 52.694C43.905 52.274 43.227 51.728 42.711 51.056C42.195 50.384 41.817 49.658 41.577 48.878C41.337 48.086 41.217 47.324 41.217 46.592V46.196C41.217 45.404 41.337 44.612 41.577 43.82C41.829 43.028 42.213 42.308 42.729 41.66C43.245 41.012 43.917 40.49 44.745 40.094C45.573 39.698 46.563 39.5 47.715 39.5C48.891 39.5 49.899 39.704 50.739 40.112C51.579 40.52 52.245 41.09 52.737 41.822C53.229 42.554 53.529 43.418 53.637 44.414H51.837C51.741 43.67 51.501 43.058 51.117 42.578C50.733 42.086 50.247 41.72 49.659 41.48C49.083 41.24 48.435 41.12 47.715 41.12C46.935 41.12 46.251 41.258 45.663 41.534C45.075 41.798 44.583 42.176 44.187 42.668C43.803 43.148 43.509 43.706 43.305 44.342C43.113 44.978 43.017 45.668 43.017 46.412C43.017 47.12 43.113 47.792 43.305 48.428C43.509 49.064 43.809 49.628 44.205 50.12C44.613 50.612 45.117 51.002 45.717 51.29C46.317 51.566 47.019 51.704 47.823 51.704C48.951 51.704 49.899 51.422 50.667 50.858C51.435 50.294 51.903 49.478 52.071 48.41H53.871C53.751 49.31 53.445 50.132 52.953 50.876C52.473 51.62 51.801 52.214 50.937 52.658C50.085 53.102 49.047 53.324 47.823 53.324ZM65.3176 53V39.86H67.0816V53H65.3176ZM56.4256 53V39.86H58.1896V53H56.4256ZM57.8296 47.258V45.674H65.6776V47.258H57.8296ZM76.3921 48.428V46.88H79.3261C79.9501 46.88 80.4661 46.76 80.8741 46.52C81.2821 46.268 81.5881 45.932 81.7921 45.512C82.0081 45.092 82.1161 44.624 82.1161 44.108C82.1161 43.58 82.0081 43.106 81.7921 42.686C81.5881 42.266 81.2821 41.936 80.8741 41.696C80.4661 41.456 79.9501 41.336 79.3261 41.336H76.3921V39.788H79.0021C80.0821 39.788 80.9821 39.962 81.7021 40.31C82.4341 40.646 82.9861 41.126 83.3581 41.75C83.7301 42.374 83.9161 43.112 83.9161 43.964V44.252C83.9161 45.092 83.7301 45.83 83.3581 46.466C82.9861 47.09 82.4341 47.576 81.7021 47.924C80.9821 48.26 80.0821 48.428 79.0021 48.428H76.3921ZM74.9881 53V39.788H76.7521V53H74.9881ZM89.5438 53L84.9898 39.86H86.8078L90.8938 51.848L90.0298 51.416H92.1898L91.2718 51.848L95.0338 39.86H96.7978L92.5678 53H89.5438ZM101.943 53V41.084H103.707V53H101.943ZM97.9465 41.444V39.86H107.703V41.444H97.9465Z" fill="#1B1818"/>
</svg>
