<svg width="24" height="25" viewBox="0 0 24 25" fill="none" xmlns="http://www.w3.org/2000/svg">
<mask id="mask0_240_314" style="mask-type:alpha" maskUnits="userSpaceOnUse" x="0" y="0" width="24" height="25">
<rect x="24" y="24.5" width="24" height="24" transform="rotate(-180 24 24.5)" fill="#D9D9D9"/>
</mask>
<g mask="url(#mask0_240_314)">
<path d="M9.87559 11.6246L13.5006 7.99961C13.5506 7.94961 13.6048 7.91211 13.6631 7.88711C13.7214 7.86211 13.7839 7.84961 13.8506 7.84961C13.9839 7.84961 14.1006 7.89544 14.2006 7.98711C14.3006 8.07878 14.3506 8.19961 14.3506 8.34961L14.3506 15.9496C14.3506 16.0996 14.3006 16.2204 14.2006 16.3121C14.1006 16.4038 13.9839 16.4496 13.8506 16.4496C13.8173 16.4496 13.7006 16.3996 13.5006 16.2996L9.87559 12.6746C9.79225 12.5913 9.73392 12.5079 9.70059 12.4246C9.66725 12.3413 9.65059 12.2496 9.65059 12.1496C9.65059 12.0496 9.66725 11.9579 9.70059 11.8746C9.73392 11.7913 9.79225 11.7079 9.87559 11.6246Z" fill="#1C1B1F"/>
</g>
</svg>
