<svg width="24" height="25" viewBox="0 0 24 25" fill="none" xmlns="http://www.w3.org/2000/svg">
<mask id="mask0_240_308" style="mask-type:alpha" maskUnits="userSpaceOnUse" x="0" y="0" width="24" height="25">
<rect y="0.5" width="24" height="24" fill="#D9D9D9"/>
</mask>
<g mask="url(#mask0_240_308)">
<path d="M13.474 12.6742L9.84902 16.2992C9.79902 16.3492 9.74486 16.3867 9.68652 16.4117C9.62819 16.4367 9.56569 16.4492 9.49902 16.4492C9.36569 16.4492 9.24902 16.4034 9.14902 16.3117C9.04902 16.2201 8.99902 16.0992 8.99902 15.9492V8.34922C8.99902 8.19922 9.04902 8.07838 9.14902 7.98672C9.24902 7.89505 9.36569 7.84922 9.49902 7.84922C9.53236 7.84922 9.64902 7.89922 9.84902 7.99922L13.474 11.6242C13.5574 11.7076 13.6157 11.7909 13.649 11.8742C13.6824 11.9576 13.699 12.0492 13.699 12.1492C13.699 12.2492 13.6824 12.3409 13.649 12.4242C13.6157 12.5076 13.5574 12.5909 13.474 12.6742Z" fill="#999999"/>
</g>
</svg>
