<svg width="24" height="25" viewBox="0 0 24 25" fill="none" xmlns="http://www.w3.org/2000/svg">
<mask id="mask0_240_308" style="mask-type:alpha" maskUnits="userSpaceOnUse" x="0" y="0" width="24" height="25">
<rect y="0.5" width="24" height="24" fill="#D9D9D9"/>
</mask>
<g mask="url(#mask0_240_308)">
<path d="M10.526 12.3258L14.151 8.70078C14.201 8.65078 14.2551 8.61328 14.3135 8.58828C14.3718 8.56328 14.4343 8.55078 14.501 8.55078C14.6343 8.55078 14.751 8.59661 14.851 8.68828C14.951 8.77995 15.001 8.90078 15.001 9.05078V16.6508C15.001 16.8008 14.951 16.9216 14.851 17.0133C14.751 17.1049 14.6343 17.1508 14.501 17.1508C14.4676 17.1508 14.351 17.1008 14.151 17.0008L10.526 13.3758C10.4426 13.2924 10.3843 13.2091 10.351 13.1258C10.3176 13.0424 10.301 12.9508 10.301 12.8508C10.301 12.7508 10.3176 12.6591 10.351 12.5758C10.3843 12.4924 10.4426 12.4091 10.526 12.3258Z" fill="#999999"/>
</g>
</svg>
