<svg width="24" height="25" viewBox="0 0 24 25" fill="none" xmlns="http://www.w3.org/2000/svg">
<g id="arrow_drop_down">
<mask id="mask0_240_314" style="mask-type:alpha" maskUnits="userSpaceOnUse" x="0" y="0" width="24" height="25">
<rect id="Bounding box" y="0.5" width="24" height="24" fill="#D9D9D9"/>
</mask>
<g mask="url(#mask0_240_314)">
<path id="arrow_drop_down_2" d="M14.1244 13.3754L10.4994 17.0004C10.4494 17.0504 10.3952 17.0879 10.3369 17.1129C10.2786 17.1379 10.2161 17.1504 10.1494 17.1504C10.0161 17.1504 9.89941 17.1046 9.79941 17.0129C9.69941 16.9212 9.64941 16.8004 9.64941 16.6504V9.05039C9.64941 8.90039 9.69941 8.77956 9.79941 8.68789C9.89941 8.59622 10.0161 8.55039 10.1494 8.55039C10.1827 8.55039 10.2994 8.60039 10.4994 8.70039L14.1244 12.3254C14.2077 12.4087 14.2661 12.4921 14.2994 12.5754C14.3327 12.6587 14.3494 12.7504 14.3494 12.8504C14.3494 12.9504 14.3327 13.0421 14.2994 13.1254C14.2661 13.2087 14.2077 13.2921 14.1244 13.3754Z" fill="#1C1B1F"/>
</g>
</g>
</svg>
