<svg width="32" height="32" viewBox="0 0 32 32" fill="none" xmlns="http://www.w3.org/2000/svg">
<g id="backup">
<mask id="mask0_101_422" style="mask-type:alpha" maskUnits="userSpaceOnUse" x="0" y="0" width="32" height="32">
<rect id="Bounding box" width="32" height="32" fill="#D9D9D9"/>
</mask>
<g mask="url(#mask0_101_422)">
<path id="backup_2" d="M15.3332 15.4411L12.9793 17.7872C12.8588 17.912 12.7082 17.9744 12.5274 17.9744C12.3466 17.9744 12.1913 17.9095 12.0614 17.7796C11.9195 17.6548 11.8528 17.4975 11.8614 17.3078C11.8699 17.118 11.9366 16.9608 12.0614 16.836L15.246 13.6513C15.4614 13.436 15.7127 13.3283 15.9998 13.3283C16.287 13.3283 16.5383 13.436 16.7537 13.6513L19.9383 16.836C20.0631 16.9608 20.131 17.1158 20.1421 17.3012C20.1532 17.4865 20.0853 17.6466 19.9383 17.7814C19.8135 17.905 19.6575 17.9638 19.4703 17.9578C19.2832 17.9518 19.1246 17.8864 18.9947 17.7616L16.6665 15.4411V23.1796C16.6665 23.3847 16.752 23.5727 16.9229 23.7437C17.0939 23.9146 17.2819 24.0001 17.487 24.0001H24.6665C25.5998 24.0001 26.3887 23.6779 27.0332 23.0334C27.6776 22.389 27.9998 21.6001 27.9998 20.6667C27.9998 19.7334 27.6776 18.9445 27.0332 18.3001C26.3887 17.6556 25.5998 17.3334 24.6665 17.3334H22.6665V14.6667C22.6665 12.8223 22.0165 11.2501 20.7165 9.95008C19.4165 8.65008 17.8443 8.00008 15.9998 8.00008C14.1554 8.00008 12.5832 8.65008 11.2832 9.95008C9.98317 11.2501 9.33317 12.8223 9.33317 14.6667H8.61524C7.37761 14.6667 6.29898 15.1223 5.37934 16.0334C4.45967 16.9445 3.99984 18.0445 3.99984 19.3334C3.99984 20.6223 4.45539 21.7223 5.3665 22.6334C6.27761 23.5445 7.37761 24.0001 8.6665 24.0001H11.3332C11.5221 24.0001 11.6804 24.0641 11.8082 24.192C11.9359 24.32 11.9998 24.4785 11.9998 24.6676C11.9998 24.8568 11.9359 25.015 11.8082 25.1424C11.6804 25.2697 11.5221 25.3334 11.3332 25.3334H8.6665C7.00326 25.3334 5.58745 24.755 4.41907 23.5982C3.25069 22.4414 2.6665 21.0275 2.6665 19.3565C2.6665 17.777 3.21009 16.4078 4.29727 15.2488C5.38445 14.0898 6.66137 13.4667 8.12804 13.3795C8.42719 11.4377 9.32036 9.83341 10.8075 8.56675C12.2947 7.30008 14.0255 6.66675 15.9998 6.66675C18.2284 6.66675 20.1189 7.44294 21.6713 8.99531C23.2236 10.5477 23.9998 12.4382 23.9998 14.6667V16.0001H24.8203C26.0973 16.0411 27.1686 16.5099 28.0345 17.4065C28.9003 18.3031 29.3332 19.3898 29.3332 20.6667C29.3332 21.9744 28.8909 23.0791 28.0063 23.9808C27.1216 24.8826 26.0255 25.3334 24.7178 25.3334H17.487C16.8733 25.3334 16.3609 25.1279 15.9498 24.7167C15.5387 24.3056 15.3332 23.7932 15.3332 23.1796V15.4411Z" fill="white"/>
</g>
</g>
</svg>
