<svg width="74" height="74" viewBox="0 0 74 74" fill="none" xmlns="http://www.w3.org/2000/svg">
<g id="backup">
<mask id="mask0_52_235" style="mask-type:alpha" maskUnits="userSpaceOnUse" x="0" y="0" width="74" height="74">
<rect id="Bounding box" x="0.324219" y="0.153809" width="73.3517" height="73.3517" fill="#D9D9D9"/>
</mask>
<g mask="url(#mask0_52_235)">
<path id="backup_2" d="M35.4718 35.5485L30.0763 40.9264C29.8 41.2125 29.4547 41.3555 29.0403 41.3555C28.6259 41.3555 28.2699 41.2066 27.9721 40.9088C27.6468 40.6228 27.494 40.2623 27.5136 39.8274C27.5332 39.3924 27.686 39.0319 27.9721 38.7459L35.272 31.4459C35.7657 30.9522 36.3417 30.7054 37 30.7054C37.6583 30.7054 38.2342 30.9522 38.7279 31.4459L46.0279 38.7459C46.3139 39.0319 46.4697 39.3873 46.4951 39.8122C46.5206 40.2371 46.3648 40.604 46.0279 40.913C45.7419 41.1963 45.3843 41.331 44.9552 41.3173C44.5261 41.3036 44.1627 41.1537 43.8649 40.8677L38.5281 35.5485V53.2869C38.5281 53.7571 38.724 54.1881 39.1159 54.58C39.5077 54.9718 39.9388 55.1677 40.4089 55.1677H56.8661C59.0055 55.1677 60.8138 54.4291 62.291 52.9519C63.7683 51.4747 64.5069 49.6663 64.5069 47.5269C64.5069 45.3875 63.7683 43.5792 62.291 42.1019C60.8138 40.6247 59.0055 39.8861 56.8661 39.8861H52.2816V33.7735C52.2816 29.5456 50.7916 25.9417 47.8117 22.9617C44.8318 19.9818 41.2279 18.4919 37 18.4919C32.7721 18.4919 29.1682 19.9818 26.1882 22.9617C23.2083 25.9417 21.7184 29.5456 21.7184 33.7735H20.0727C17.2358 33.7735 14.7633 34.8177 12.6552 36.9062C10.5471 38.9947 9.49309 41.5162 9.49309 44.4706C9.49309 47.425 10.5373 49.9465 12.6258 52.035C14.7143 54.1235 17.2358 55.1677 20.1902 55.1677H26.3029C26.7358 55.1677 27.0988 55.3144 27.3917 55.6077C27.6846 55.901 27.831 56.2644 27.831 56.6979C27.831 57.1315 27.6846 57.4943 27.3917 57.7861C27.0988 58.0781 26.7358 58.224 26.3029 58.224H20.1902C16.3777 58.224 13.1323 56.8982 10.4541 54.2465C7.77587 51.5948 6.43677 48.3538 6.43677 44.5235C6.43677 40.9029 7.6828 37.7643 10.1749 35.1076C12.667 32.451 15.594 31.0228 18.9559 30.8229C19.6417 26.3717 21.689 22.6943 25.098 19.7908C28.5069 16.8873 32.4743 15.4355 37 15.4355C42.1084 15.4355 46.4418 17.2148 50.0003 20.7732C53.5587 24.3316 55.3379 28.665 55.3379 33.7735V36.8298H57.2187C60.1457 36.9238 62.6016 37.9984 64.5863 40.0536C66.5709 42.1088 67.5632 44.5999 67.5632 47.5269C67.5632 50.5245 66.5493 53.0567 64.5216 55.1236C62.4938 57.1906 59.9812 58.224 56.9836 58.224H40.4089C39.0022 58.224 37.8277 57.7529 36.8854 56.8105C35.943 55.8681 35.4718 54.6936 35.4718 53.2869V35.5485Z" fill="#5A5A5A"/>
</g>
</g>
</svg>
