<svg width="30" height="30" viewBox="0 0 30 30" fill="none" xmlns="http://www.w3.org/2000/svg">
<mask id="mask0_3648_3520" style="mask-type:alpha" maskUnits="userSpaceOnUse" x="0" y="0" width="30" height="30">
<rect width="30" height="30" fill="#D9D9D9"/>
</mask>
<g mask="url(#mask0_3648_3520)">
<path d="M7.14286 24.9991C6.54029 24.9991 6.0325 24.7926 5.6195 24.3796C5.2065 23.9666 5 23.4588 5 22.8562V18.8452C5 18.2427 5.2065 17.7349 5.6195 17.3219C6.0325 16.9089 6.54029 16.7024 7.14286 16.7024C7.74543 16.7024 8.25321 16.9089 8.66621 17.3219C9.07921 17.7349 9.28571 18.2427 9.28571 18.8452V22.8562C9.28571 23.4588 9.07921 23.9666 8.66621 24.3796C8.25321 24.7926 7.74543 24.9991 7.14286 24.9991ZM22.8571 24.9991C22.2546 24.9991 21.7468 24.7926 21.3338 24.3796C20.9208 23.9666 20.7143 23.4588 20.7143 22.8562V14.0101C20.7143 13.4075 20.9208 12.8997 21.3338 12.4867C21.7468 12.0737 22.2546 11.8672 22.8571 11.8672C23.4597 11.8672 23.9675 12.0737 24.3805 12.4867C24.7935 12.8997 25 13.4075 25 14.0101V22.8562C25 23.4588 24.7935 23.9666 24.3805 24.3796C23.9675 24.7926 23.4597 24.9991 22.8571 24.9991Z" fill="#1C1B1F"/>
<path d="M13.4769 24.3805C13.8899 24.7935 14.3977 25 15.0003 25C15.6028 25 16.1106 24.7935 16.5236 24.3805C16.9366 23.9675 17.1431 23.4597 17.1431 22.8571V7.14286C17.1431 6.54029 16.9366 6.0325 16.5236 5.6195C16.1106 5.2065 15.6028 5 15.0003 5C14.3977 5 13.8899 5.2065 13.4769 5.6195C13.0639 6.0325 12.8574 6.54029 12.8574 7.14286V22.8571C12.8574 23.4597 13.0639 23.9675 13.4769 24.3805Z" fill="#4D67EB"/>
</g>
</svg>
