<svg xmlns="http://www.w3.org/2000/svg" width="45" height="45" viewBox="0 0 45 45" fill="none">
  <mask id="mask0_52_277" style="mask-type:alpha" maskUnits="userSpaceOnUse" x="0" y="0" width="45" height="45">
    <rect x="0.37207" y="0.0272217" width="44" height="44" fill="#D9D9D9"/>
  </mask>
  <g mask="url(#mask0_52_277)">
    <path d="M6.41846 28.6554V15.3991C6.41846 14.8961 6.58416 14.4942 6.91556 14.1933C7.247 13.8925 7.63365 13.7421 8.07551 13.7421C8.22829 13.7421 8.3846 13.7573 8.54444 13.7879C8.70424 13.8185 8.85467 13.889 8.99571 13.9994L18.952 20.6557C19.2035 20.8273 19.3892 21.0283 19.509 21.2586C19.6289 21.489 19.6889 21.7452 19.6889 22.0272C19.6889 22.3093 19.6289 22.5655 19.509 22.7958C19.3892 23.0261 19.2035 23.2271 18.952 23.3987L8.99571 30.055C8.85467 30.1655 8.70424 30.236 8.54444 30.2665C8.3846 30.2971 8.22829 30.3124 8.07551 30.3124C7.63365 30.3124 7.247 30.1619 6.91556 29.8611C6.58416 29.5602 6.41846 29.1583 6.41846 28.6554ZM23.7293 28.6554V15.3991C23.7293 14.8961 23.895 14.4942 24.2264 14.1933C24.5578 13.8925 24.9445 13.7421 25.3864 13.7421C25.5391 13.7421 25.6954 13.7573 25.8552 13.7879C26.0151 13.8185 26.1655 13.889 26.3065 13.9994L36.2628 20.6557C36.5143 20.8273 36.7 21.0283 36.8199 21.2586C36.9398 21.489 36.9997 21.7452 36.9997 22.0272C36.9997 22.3093 36.9398 22.5655 36.8199 22.7958C36.7 23.0261 36.5143 23.2271 36.2628 23.3987L26.3065 30.055C26.1655 30.1655 26.0151 30.236 25.8552 30.2665C25.6954 30.2971 25.5391 30.3124 25.3864 30.3124C24.9445 30.3124 24.5578 30.1619 24.2264 29.8611C23.895 29.5602 23.7293 29.1583 23.7293 28.6554Z" fill="#1C1B1F"/>
  </g>
</svg>