<svg xmlns="http://www.w3.org/2000/svg" width="45" height="45" viewBox="0 0 45 45" fill="none">
  <mask id="mask0_52_271" style="mask-type:alpha" maskUnits="userSpaceOnUse" x="0" y="0" width="45" height="45">
    <rect x="0.62793" y="0.0272217" width="44" height="44" fill="#D9D9D9"/>
  </mask>
  <g mask="url(#mask0_52_271)">
    <path d="M36.0035 30.055L26.0472 23.3987C25.7957 23.2271 25.61 23.0261 25.4901 22.7958C25.3703 22.5655 25.3103 22.3093 25.3103 22.0272C25.3103 21.7452 25.3703 21.489 25.4901 21.2586C25.61 21.0283 25.7957 20.8273 26.0472 20.6557L36.0035 13.9994C36.1445 13.889 36.295 13.8185 36.4548 13.7879C36.6146 13.7573 36.7709 13.7421 36.9237 13.7421C37.3655 13.7421 37.7522 13.8925 38.0836 14.1933C38.415 14.4942 38.5807 14.8961 38.5807 15.3991V28.6554C38.5807 29.1583 38.415 29.5602 38.0836 29.8611C37.7522 30.1619 37.3655 30.3124 36.9237 30.3124C36.7709 30.3124 36.6146 30.2971 36.4548 30.2665C36.295 30.236 36.1445 30.1655 36.0035 30.055ZM18.6927 30.055L8.73637 23.3987C8.48487 23.2271 8.29918 23.0261 8.17932 22.7958C8.05945 22.5655 7.99951 22.3093 7.99951 22.0272C7.99951 21.7452 8.05945 21.489 8.17932 21.2586C8.29918 21.0283 8.48487 20.8273 8.73637 20.6557L18.6927 13.9994C18.8337 13.889 18.9841 13.8185 19.144 13.7879C19.3038 13.7573 19.4601 13.7421 19.6129 13.7421C20.0547 13.7421 20.4414 13.8925 20.7728 14.1933C21.1042 14.4942 21.2699 14.8961 21.2699 15.3991V28.6554C21.2699 29.1583 21.1042 29.5602 20.7728 29.8611C20.4414 30.1619 20.0547 30.3124 19.6129 30.3124C19.4601 30.3124 19.3038 30.2971 19.144 30.2665C18.9841 30.236 18.8337 30.1655 18.6927 30.055Z" fill="#1C1B1F"/>
  </g>
</svg>