<svg width="44" height="45" viewBox="0 0 44 45" fill="none" xmlns="http://www.w3.org/2000/svg">
<mask id="mask0_52_274" style="mask-type:alpha" maskUnits="userSpaceOnUse" x="0" y="0" width="44" height="45">
<rect y="0.0272217" width="44" height="44" fill="#D9D9D9"/>
</mask>
<g mask="url(#mask0_52_274)">
<path d="M19.7886 28.197L27.7741 23.0673C28.1666 22.8181 28.3629 22.472 28.3629 22.029C28.3629 21.5859 28.1666 21.2387 27.7741 20.9872L19.7886 15.8574C19.3773 15.5753 18.9553 15.5528 18.5229 15.7897C18.0904 16.0265 17.8742 16.3958 17.8742 16.8975V27.157C17.8742 27.6586 18.0904 28.0279 18.5229 28.2648C18.9553 28.5017 19.3773 28.4791 19.7886 28.197ZM22.0022 39.4438C19.5933 39.4438 17.3291 38.9867 15.2095 38.0725C13.0899 37.1583 11.2462 35.9176 9.67827 34.3504C8.11034 32.7832 6.86907 30.9402 5.95445 28.8215C5.03983 26.7029 4.58252 24.4392 4.58252 22.0303C4.58252 19.6214 5.03963 17.3572 5.95385 15.2376C6.86808 13.118 8.10878 11.2742 9.67598 9.70635C11.2432 8.13842 13.0861 6.89715 15.2048 5.98253C17.3234 5.06791 19.5872 4.6106 21.9961 4.6106C24.4049 4.6106 26.6692 5.06771 28.7888 5.98193C30.9084 6.89615 32.7521 8.13686 34.32 9.70405C35.8879 11.2713 37.1292 13.1142 38.0438 15.2329C38.9585 17.3515 39.4158 19.6153 39.4158 22.0241C39.4158 24.433 38.9586 26.6972 38.0444 28.8168C37.1302 30.9364 35.8895 32.7802 34.3223 34.3481C32.7551 35.916 30.9121 37.1573 28.7935 38.0719C26.6748 38.9865 24.4111 39.4438 22.0022 39.4438Z" fill="#1C1B1F"/>
</g>
</svg>
