<svg width="50" height="40" viewBox="0 0 50 40" fill="none" xmlns="http://www.w3.org/2000/svg">
<path d="M5 40C3.625 40 2.44792 39.5104 1.46875 38.5312C0.489583 37.5521 0 36.375 0 35V5C0 3.625 0.489583 2.44792 1.46875 1.46875C2.44792 0.489583 3.625 0 5 0H35C36.375 0 37.5521 0.489583 38.5312 1.46875C39.5104 2.44792 40 3.625 40 5V16.25L47.875 8.375C48.2917 7.95833 48.75 7.85417 49.25 8.0625C49.75 8.27083 50 8.66667 50 9.25V30.75C50 31.3333 49.75 31.7292 49.25 31.9375C48.75 32.1458 48.2917 32.0417 47.875 31.625L40 23.75V35C40 36.375 39.5104 37.5521 38.5312 38.5312C37.5521 39.5104 36.375 40 35 40H5ZM5 35H35V5H5V35Z" fill="#666666"/>
</svg>
