<svg width="57" height="51" viewBox="0 0 57 51" fill="none" xmlns="http://www.w3.org/2000/svg">
<g id="videos-icon 1" clip-path="url(#clip0_71_76)">
<path id="Vector" d="M5.31077 41.6628C4.24894 41.0006 3.33381 40.1281 2.62166 39.0991C1.54778 37.5811 0.96865 35.7686 0.963379 33.9092L0.963379 9.93573C0.96761 8.74169 1.2073 7.5602 1.66874 6.45891C2.13017 5.35762 2.80429 4.35815 3.65249 3.51772L3.71972 3.4505C5.41125 1.77804 7.69178 0.83654 10.0705 0.828613L40.0765 0.828613C42.4167 0.834469 44.6643 1.74317 46.3511 3.36534C47.108 4.09464 47.7368 4.94613 48.211 5.88414H47.5657H45.3651C45.1587 5.61515 44.9325 5.36197 44.6883 5.12671C43.6596 4.14136 42.3413 3.51286 40.928 3.33397L39.5387 5.89311H37.0423L38.463 3.28019H29.1632L27.7469 5.89311H25.255L26.6758 3.28019H17.1205L15.6145 6.02756C14.6795 6.18278 13.7652 6.44443 12.8896 6.8074L12.6162 6.92393L14.6106 3.25778H10.0705C8.32793 3.25659 6.6544 3.93888 5.40938 5.15808L5.35559 5.22083C4.73326 5.83817 4.23937 6.57267 3.90244 7.38192C3.56551 8.19117 3.39221 9.05914 3.39254 9.93573H8.47496C7.6293 10.8702 6.93107 11.9281 6.40435 13.073H3.39254V33.9092C3.38881 35.27 3.80515 36.5988 4.58471 37.7142C4.80078 38.0332 5.04368 38.333 5.31077 38.6106V41.6852V41.6628ZM18.1244 9.56374H47.0278C49.4149 9.57083 51.7021 10.5222 53.39 12.2101C55.0779 13.898 56.0293 16.1852 56.0364 18.5723V41.6672C56.0281 44.0535 55.0762 46.3396 53.3884 48.0265C51.7007 49.7134 49.4141 50.6642 47.0278 50.6713H18.1244C15.7382 50.6654 13.4514 49.7148 11.7641 48.0275C10.0768 46.3402 9.12626 44.0534 9.12035 41.6672V18.5723C9.12744 16.186 10.0782 13.8994 11.7651 12.2117C13.4521 10.5239 15.7381 9.57202 18.1244 9.56374ZM29.4321 26.8861L37.9476 32.8245C38.2141 32.9876 38.4353 33.2151 38.5909 33.486C38.7465 33.7568 38.8316 34.0625 38.8383 34.3748C38.845 34.6872 38.7731 34.9962 38.6292 35.2735C38.4853 35.5508 38.2741 35.7875 38.0148 35.9618L29.5486 41.7927C29.2737 42.0111 28.943 42.1479 28.5941 42.1874C28.2453 42.2269 27.8923 42.1676 27.5755 42.0162C27.2587 41.8648 26.9909 41.6275 26.8025 41.3312C26.6141 41.0349 26.5127 40.6917 26.5099 40.3406V28.4099C26.5093 28.0689 26.6025 27.7343 26.7792 27.4427C26.9559 27.1511 27.2094 26.9137 27.512 26.7564C27.8145 26.5991 28.1545 26.528 28.4947 26.5509C28.8349 26.5737 29.1623 26.6897 29.4411 26.8861H29.4321ZM39.8076 18.7829L42.8552 12.3739H33.4434L30.3957 18.7829H39.8076ZM45.392 12.3739L42.3443 18.7829H52.3119C52.6499 18.7827 52.9764 18.9054 53.2307 19.128V18.5723C53.2248 16.9294 52.5693 15.3556 51.4071 14.1943C50.245 13.033 48.6707 12.3786 47.0278 12.3739H45.392ZM27.8545 18.7829L30.8977 12.3739H21.2258L18.1782 18.7829H27.8545ZM15.6235 18.7829L18.6712 12.3739H18.1244C16.4816 12.3774 14.907 13.0316 13.7454 14.1933C12.5837 15.3549 11.9295 16.9294 11.926 18.5723V18.7829H15.6235ZM53.2128 21.2434C52.9585 21.4661 52.632 21.5887 52.294 21.5885H11.926V41.6672C11.9236 43.3139 12.5752 44.8942 13.7375 46.0607C14.8998 47.2272 16.4777 47.8845 18.1244 47.888H47.0278C48.67 47.881 50.2429 47.2258 51.4046 46.065C52.5662 44.9043 53.2225 43.3318 53.2307 41.6896V21.2434H53.2128Z" fill="#505050"/>
</g>
<defs>
<clipPath id="clip0_71_76">
<rect width="55.073" height="49.8427" fill="white" transform="translate(0.963379 0.828613)"/>
</clipPath>
</defs>
</svg>
