<svg xmlns="http://www.w3.org/2000/svg" width="30" height="28" viewBox="0 0 30 28" fill="none">
  <path d="M27.3042 13.7773C27.3042 11.3327 26.6423 9.10259 25.3186 7.08699C23.9948 5.07143 22.2189 3.5663 19.9908 2.57161C19.6452 2.40998 19.3906 2.1687 19.227 1.84776C19.0634 1.52682 19.0449 1.20134 19.1717 0.871313C19.3168 0.511668 19.5726 0.262425 19.939 0.123586C20.3053 -0.0152538 20.6763 -0.00387432 21.0518 0.15772C23.7615 1.37322 25.9303 3.20214 27.5582 5.6445C29.1861 8.08685 30 10.7978 30 13.7773C30 16.7569 29.1861 19.4678 27.5582 21.9102C25.9303 24.3525 23.7615 26.1815 21.0518 27.397C20.6763 27.5586 20.3053 27.5699 19.939 27.4311C19.5726 27.2923 19.3168 27.043 19.1717 26.6834C19.0449 26.3533 19.0634 26.0279 19.227 25.7069C19.3906 25.386 19.6452 25.1447 19.9908 24.9831C22.2189 23.9884 23.9948 22.4833 25.3186 20.4677C26.6423 18.4521 27.3042 16.222 27.3042 13.7773ZM6.67048 18.2603H1.6244C1.16128 18.2603 0.774763 18.1072 0.464858 17.801C0.154952 17.4949 0 17.1131 0 16.6556V10.9879C0 10.5304 0.154952 10.1486 0.464858 9.84243C0.774763 9.53626 1.16128 9.38317 1.6244 9.38317H6.67048L12.0484 4.07057C12.4792 3.64493 12.9752 3.54762 13.5362 3.77864C14.0973 4.00968 14.3778 4.42793 14.3778 5.03339V22.6101C14.3778 23.2155 14.0973 23.6338 13.5362 23.8648C12.9752 24.0958 12.4792 23.9985 12.0484 23.5729L6.67048 18.2603ZM22.4655 13.8217C22.4655 14.9279 22.2327 15.9761 21.7673 16.9663C21.3019 17.9564 20.674 18.7895 19.8837 19.4655C19.6302 19.6317 19.3635 19.6476 19.0836 19.5133C18.8036 19.379 18.6636 19.1571 18.6636 18.8476V8.70713C18.6636 8.39758 18.8036 8.17565 19.0836 8.04134C19.3635 7.90706 19.6302 7.92299 19.8837 8.08914C20.674 8.7834 21.3019 9.63583 21.7673 10.6464C22.2327 11.6571 22.4655 12.7155 22.4655 13.8217Z" fill="#1C1B1F"/>
</svg>