<svg width="64" height="65" viewBox="0 0 64 65" fill="none" xmlns="http://www.w3.org/2000/svg">
<g id="facebook-round-color-icon (3) 1" clip-path="url(#clip0_434_343)">
<g id="Group">
<path id="Vector" d="M64 32.7852C64 15.1116 49.6736 0.785156 32 0.785156C14.3264 0.785156 0 15.1116 0 32.7852C0 47.7931 10.3318 60.3844 24.2697 63.8434V42.5637H17.671V32.7852H24.2697V28.5717C24.2697 17.6791 29.1986 12.6308 39.8912 12.6308C41.9194 12.6308 45.4174 13.0294 46.8483 13.4267V22.2912C46.0926 22.212 44.7811 22.1717 43.1516 22.1717C37.9046 22.1717 35.8765 24.1596 35.8765 29.3274V32.7852H46.329L44.5334 42.5637H35.8765V64.5513C51.7218 62.6376 64 49.146 64 32.7852Z" fill="#0866FF"/>
<path id="Vector_2" d="M44.5343 42.5637L46.3298 32.7852H35.8773V29.3274C35.8773 24.1597 37.9054 22.1718 43.1524 22.1718C44.782 22.1718 46.0934 22.212 46.8491 22.2912V13.4268C45.4182 13.0294 41.9202 12.6309 39.8921 12.6309C29.1994 12.6309 24.2705 17.6804 24.2705 28.5718V32.7852H17.6719V42.5637H24.2705V63.8434C26.7463 64.457 29.3352 64.7852 32.0008 64.7852C33.3135 64.7852 34.6061 64.7047 35.8773 64.5513V42.5637H44.5343Z" fill="white"/>
</g>
</g>
<defs>
<clipPath id="clip0_434_343">
<rect width="64" height="64" fill="white" transform="translate(0 0.785156)"/>
</clipPath>
</defs>
</svg>
