<svg width="64" height="65" viewBox="0 0 64 65" fill="none" xmlns="http://www.w3.org/2000/svg">
<g id="ig-instagram-icon (2) 1" clip-path="url(#clip0_434_348)">
<path id="Vector" d="M32.0196 1.26953C18.8599 1.26953 15.0112 1.28311 14.263 1.34517C11.5624 1.56965 9.88195 1.99486 8.05116 2.90638C6.64025 3.60699 5.52753 4.41911 4.42935 5.55753C2.42935 7.63365 1.21722 10.1878 0.778436 13.224C0.565103 14.6979 0.503042 14.9985 0.490436 22.5272C0.485588 25.0368 0.490436 28.3396 0.490436 32.7697C0.490436 45.9187 0.504982 49.7636 0.568012 50.5103C0.786194 53.1381 1.19831 54.7915 2.07104 56.6C3.73892 60.0618 6.92438 62.6606 10.6771 63.6303C11.9765 63.9648 13.4116 64.149 15.2541 64.2363C16.0347 64.2703 23.991 64.2945 31.9523 64.2945C39.9135 64.2945 47.8747 64.2848 48.6359 64.246C50.7692 64.1457 52.008 63.9793 53.3777 63.6254C57.1547 62.6509 60.282 60.0909 61.9838 56.5806C62.8395 54.8157 63.2735 53.0994 63.4698 50.6087C63.5125 50.0657 63.5304 41.4077 63.5304 32.7614C63.5304 24.1137 63.511 15.4717 63.4684 14.9287C63.2696 12.3978 62.8356 10.696 61.9523 8.89717C61.2274 7.42468 60.4226 6.32505 59.2541 5.20068C57.1687 3.20893 54.6184 1.9968 51.5794 1.5585C50.1069 1.34565 49.8136 1.28262 42.279 1.26953H32.0196Z" fill="url(#paint0_radial_434_348)"/>
<path id="Vector_2" d="M32.0196 1.26953C18.8599 1.26953 15.0112 1.28311 14.263 1.34517C11.5624 1.56965 9.88195 1.99486 8.05116 2.90638C6.64025 3.60699 5.52753 4.41911 4.42935 5.55753C2.42935 7.63365 1.21722 10.1878 0.778436 13.224C0.565103 14.6979 0.503042 14.9985 0.490436 22.5272C0.485588 25.0368 0.490436 28.3396 0.490436 32.7697C0.490436 45.9187 0.504982 49.7636 0.568012 50.5103C0.786194 53.1381 1.19831 54.7915 2.07104 56.6C3.73892 60.0618 6.92438 62.6606 10.6771 63.6303C11.9765 63.9648 13.4116 64.149 15.2541 64.2363C16.0347 64.2703 23.991 64.2945 31.9523 64.2945C39.9135 64.2945 47.8747 64.2848 48.6359 64.246C50.7692 64.1457 52.008 63.9793 53.3777 63.6254C57.1547 62.6509 60.282 60.0909 61.9838 56.5806C62.8395 54.8157 63.2735 53.0994 63.4698 50.6087C63.5125 50.0657 63.5304 41.4077 63.5304 32.7614C63.5304 24.1137 63.511 15.4717 63.4684 14.9287C63.2696 12.3978 62.8356 10.696 61.9523 8.89717C61.2274 7.42468 60.4226 6.32505 59.2541 5.20068C57.1687 3.20893 54.6184 1.9968 51.5794 1.5585C50.1069 1.34565 49.8136 1.28262 42.279 1.26953H32.0196Z" fill="url(#paint1_radial_434_348)"/>
<path id="Vector_3" d="M32.0012 9.51172C25.6807 9.51172 24.8875 9.53936 22.4051 9.65233C19.9275 9.76578 18.2364 10.158 16.7566 10.7335C15.226 11.328 13.9275 12.1231 12.634 13.4172C11.3394 14.7107 10.5443 16.0092 9.9479 17.5394C9.37093 19.0196 8.9782 20.7112 8.86668 23.1878C8.75565 25.6703 8.72656 26.464 8.72656 32.7844C8.72656 39.1049 8.75468 39.8957 8.86717 42.3781C8.98111 44.8557 9.37335 46.5469 9.94838 48.0266C10.5433 49.5573 11.3384 50.8557 12.6325 52.1493C13.9256 53.4438 15.224 54.2409 16.7537 54.8354C18.2344 55.4109 19.9261 55.8031 22.4032 55.9166C24.8856 56.0295 25.6783 56.0572 31.9983 56.0572C38.3193 56.0572 39.1101 56.0295 41.5925 55.9166C44.0701 55.8031 45.7632 55.4109 47.2439 54.8354C48.7741 54.2409 50.0706 53.4438 51.3637 52.1493C52.6582 50.8557 53.4533 49.5573 54.0497 48.0271C54.6218 46.5469 55.0146 44.8552 55.1309 42.3786C55.2424 39.8962 55.2715 39.1049 55.2715 32.7844C55.2715 26.464 55.2424 25.6707 55.1309 23.1883C55.0146 20.7107 54.6218 19.0196 54.0497 17.5398C53.4533 16.0092 52.6582 14.7107 51.3637 13.4172C50.0691 12.1226 48.7746 11.3275 47.2424 10.7335C45.7588 10.158 44.0667 9.76578 41.5891 9.65233C39.1067 9.53936 38.3164 9.51172 31.994 9.51172H32.0012ZM29.9135 13.7057C30.5331 13.7047 31.2245 13.7057 32.0012 13.7057C38.215 13.7057 38.9515 13.728 41.4054 13.8395C43.6744 13.9432 44.906 14.3224 45.7263 14.6409C46.8124 15.0627 47.5867 15.567 48.4007 16.3815C49.2153 17.1961 49.7195 17.9718 50.1423 19.0579C50.4609 19.8773 50.8405 21.1088 50.9438 23.3779C51.0553 25.8312 51.0795 26.5682 51.0795 32.7791C51.0795 38.99 51.0553 39.727 50.9438 42.1803C50.84 44.4494 50.4609 45.6809 50.1423 46.5003C49.7205 47.5864 49.2153 48.3597 48.4007 49.1738C47.5862 49.9883 46.8129 50.4926 45.7263 50.9144C44.9069 51.2344 43.6744 51.6126 41.4054 51.7163C38.952 51.8278 38.215 51.8521 32.0012 51.8521C25.7869 51.8521 25.0504 51.8278 22.5971 51.7163C20.328 51.6116 19.0965 51.2324 18.2757 50.9139C17.1896 50.4921 16.4138 49.9878 15.5993 49.1733C14.7847 48.3588 14.2805 47.5849 13.8577 46.4984C13.5392 45.679 13.1595 44.4475 13.0563 42.1784C12.9447 39.7251 12.9224 38.9881 12.9224 32.7733C12.9224 26.5585 12.9447 25.8254 13.0563 23.3721C13.16 21.103 13.5392 19.8715 13.8577 19.0511C14.2795 17.9651 14.7847 17.1893 15.5993 16.3747C16.4138 15.5602 17.1896 15.056 18.2757 14.6332C19.096 14.3132 20.328 13.935 22.5971 13.8307C24.744 13.7338 25.576 13.7047 29.9135 13.6998V13.7057ZM44.424 17.5699C42.8822 17.5699 41.6313 18.8194 41.6313 20.3617C41.6313 21.9035 42.8822 23.1544 44.424 23.1544C45.9658 23.1544 47.2167 21.9035 47.2167 20.3617C47.2167 18.8198 45.9658 17.5689 44.424 17.5689V17.5699ZM32.0012 20.8329C25.401 20.8329 20.0497 26.1842 20.0497 32.7844C20.0497 39.3847 25.401 44.7335 32.0012 44.7335C38.6015 44.7335 43.9508 39.3847 43.9508 32.7844C43.9508 26.1842 38.6015 20.8329 32.0012 20.8329ZM32.0012 25.0269C36.2854 25.0269 39.7588 28.4998 39.7588 32.7844C39.7588 37.0686 36.2854 40.542 32.0012 40.542C27.7166 40.542 24.2437 37.0686 24.2437 32.7844C24.2437 28.4998 27.7166 25.0269 32.0012 25.0269Z" fill="white"/>
</g>
<defs>
<radialGradient id="paint0_radial_434_348" cx="0" cy="0" r="1" gradientUnits="userSpaceOnUse" gradientTransform="translate(17.2339 69.1487) rotate(-90) scale(62.4624 58.1108)">
<stop stop-color="#FFDD55"/>
<stop offset="0.1" stop-color="#FFDD55"/>
<stop offset="0.5" stop-color="#FF543E"/>
<stop offset="1" stop-color="#C837AB"/>
</radialGradient>
<radialGradient id="paint1_radial_434_348" cx="0" cy="0" r="1" gradientUnits="userSpaceOnUse" gradientTransform="translate(-10.0716 5.80974) rotate(78.6776) scale(27.9212 115.122)">
<stop stop-color="#3771C8"/>
<stop offset="0.128" stop-color="#3771C8"/>
<stop offset="1" stop-color="#6600FF" stop-opacity="0"/>
</radialGradient>
<clipPath id="clip0_434_348">
<rect width="64.0019" height="64" fill="white" transform="translate(0 0.785156)"/>
</clipPath>
</defs>
</svg>
