<svg width="64" height="64" viewBox="0 0 64 64" fill="none" xmlns="http://www.w3.org/2000/svg">
<g id="linkedin-app-icon (2) 1" clip-path="url(#clip0_434_353)">
<path id="Vector" fill-rule="evenodd" clip-rule="evenodd" d="M14.3604 0.138672H49.2289C53.0341 0.149595 56.6804 1.66607 59.3711 4.35679C62.0619 7.04752 63.5783 10.6938 63.5893 14.499V49.0778C63.577 52.8821 62.0599 56.5271 59.3693 59.2167C56.6787 61.9063 53.0333 63.4221 49.2289 63.433H14.3604C10.556 63.4221 6.91052 61.9063 4.21994 59.2167C1.52936 56.5271 0.0122874 52.8821 0 49.0778V14.499C0.0109229 10.6938 1.52739 7.04752 4.21812 4.35679C6.90885 1.66607 10.5551 0.149595 14.3604 0.138672Z" fill="#0A66C2"/>
<path id="Vector_2" fill-rule="evenodd" clip-rule="evenodd" d="M25.4566 24.6729H33.4932V28.8128H33.6071C34.7301 26.805 37.4624 24.6729 41.5454 24.6729C50.0271 24.6729 51.5951 29.9513 51.5951 36.8184V51.3392H43.2169V38.433C43.2169 35.4781 43.1548 31.6746 38.8596 31.6746C34.5645 31.6746 33.8296 34.8882 33.8296 38.2208V51.3651H25.4566V24.6729ZM20.7009 16.5897C20.7009 17.4515 20.4453 18.2939 19.9665 19.0105C19.4878 19.727 18.8072 20.2855 18.0111 20.6153C17.2149 20.9451 16.3388 21.0314 15.4935 20.8632C14.6483 20.6951 13.8719 20.2801 13.2625 19.6708C12.6532 19.0614 12.2382 18.285 12.0701 17.4398C11.9019 16.5945 11.9882 15.7184 12.318 14.9222C12.6478 14.1261 13.2063 13.4455 13.9228 12.9668C14.6394 12.488 15.4818 12.2324 16.3436 12.2324C17.4988 12.2338 18.6063 12.6933 19.4231 13.5102C20.24 14.327 20.6995 15.4345 20.7009 16.5897ZM11.9967 24.6729H20.7009V51.3392H11.9967V24.6729Z" fill="white"/>
</g>
<defs>
<clipPath id="clip0_434_353">
<rect width="63.5893" height="63.2943" fill="white" transform="translate(0 0.138672)"/>
</clipPath>
</defs>
</svg>
